<?xml version="1.0" encoding="UTF-8" standalone="no"?>
<svg
   xmlns:dc="http://purl.org/dc/elements/1.1/"
   xmlns:cc="http://creativecommons.org/ns#"
   xmlns:rdf="http://www.w3.org/1999/02/22-rdf-syntax-ns#"
   xmlns:svg="http://www.w3.org/2000/svg"
   xmlns="http://www.w3.org/2000/svg"
   xmlns:sodipodi="http://sodipodi.sourceforge.net/DTD/sodipodi-0.dtd"
   xmlns:inkscape="http://www.inkscape.org/namespaces/inkscape"
   viewBox="0 0 502.91 129.85"
   version="1.1"
   id="svg32"
   sodipodi:docname="vliruos_white.svg"
   inkscape:version="0.92.3 (2405546, 2018-03-11)">
  <metadata
     id="metadata36">
    <rdf:RDF>
      <cc:Work
         rdf:about="">
        <dc:format>image/svg+xml</dc:format>
        <dc:type
           rdf:resource="http://purl.org/dc/dcmitype/StillImage" />
        <dc:title>vliruos</dc:title>
      </cc:Work>
    </rdf:RDF>
  </metadata>
  <sodipodi:namedview
     pagecolor="#ffffff"
     bordercolor="#666666"
     borderopacity="1"
     objecttolerance="10"
     gridtolerance="10"
     guidetolerance="10"
     inkscape:pageopacity="0"
     inkscape:pageshadow="2"
     inkscape:window-width="1366"
     inkscape:window-height="713"
     id="namedview34"
     showgrid="false"
     inkscape:zoom="1.3600843"
     inkscape:cx="233.67127"
     inkscape:cy="14.730258"
     inkscape:window-x="0"
     inkscape:window-y="27"
     inkscape:window-maximized="1"
     inkscape:current-layer="svg32" />
  <defs
     id="defs4">
    <style
       id="style2">.a{fill:#9ea684;}.b{fill:#32524d;}.c{fill:none;}</style>
  </defs>
  <title
     id="title6">vliruos</title>
  <path
     class="a"
     d="M497.47,101.38a5.43,5.43,0,0,0-3.68-1.26c-2.36,0-4.58,1.34-4.58,3.9,0,4,5.64,2.82,5.64,5,0,.85-1,1.25-1.83,1.25a2.94,2.94,0,0,1-2.31-1.14l-1.89,2.07a5.71,5.71,0,0,0,4,1.51c2.48,0,4.64-1.27,4.64-4,0-4.21-5.54-2.8-5.54-5,0-.9,1-1.24,1.78-1.24a2.56,2.56,0,0,1,1.92.8Zm-18.35,11.07h8.47V110h-5.82v-2.44H487v-2.44h-5.21v-2.24h5.52v-2.44h-8.16Zm-8.44,0h2.12l5-12h-2.84l-3,7.88h0l-3-7.87h-3Zm-8.67,0h2.65v-12H462Zm-9,0h7.55V110h-4.91v-9.57H453Zm-7.45-7.13h-4.7v2.44H443v2a5.2,5.2,0,0,1-2.5.59,3.87,3.87,0,0,1,0-7.74,3.69,3.69,0,0,1,2.92,1.14l1.87-2a6.81,6.81,0,0,0-4.79-1.55c-3.75,0-6.49,2.46-6.49,6.32s2.73,6.31,6.49,6.31a10.77,10.77,0,0,0,5-1.15Zm-24.72,7.13h2.65v-8.55h0l5.24,8.55h3.46v-12h-2.65v8.35h0l-5.11-8.35h-3.6Zm-5.06,0h2.65v-12h-2.65Zm-2.29-7.13h-4.7v2.44H411v2a5.2,5.2,0,0,1-2.5.59,3.87,3.87,0,0,1,0-7.74,3.69,3.69,0,0,1,2.92,1.14l1.87-2a6.82,6.82,0,0,0-4.79-1.55c-3.75,0-6.48,2.46-6.48,6.32s2.73,6.31,6.48,6.31a10.76,10.76,0,0,0,5-1.15Zm-24.71,7.13h2.64v-8.55h0l5.24,8.55h3.46v-12h-2.65v8.35h0l-5.11-8.35h-3.6Zm-6.13-4.79h-2.94l1.46-3.74ZM375,112.45h2.92l1-2.54h4.67l1,2.54h3l-5.23-12h-2.19Zm-11.65,0H366v-5.19h5.14v5.19h2.65v-12h-2.65v4.48H366v-4.48h-2.65Zm-1.73-10.56a5.16,5.16,0,0,0-4.06-1.77c-3.75,0-6.48,2.46-6.48,6.32s2.73,6.31,6.48,6.31a5.24,5.24,0,0,0,4.35-2.08L359.69,109a2.87,2.87,0,0,1-2.48,1.29c-1.92,0-3.39-1.63-3.39-3.87a3.58,3.58,0,0,1,3.48-3.87,2.84,2.84,0,0,1,2.28,1Zm-20.88,12.6h2.17l1.53-4.79H342Zm-1.05-13.11a5.43,5.43,0,0,0-3.68-1.26c-2.36,0-4.58,1.34-4.58,3.9,0,4,5.64,2.82,5.64,5,0,.85-1,1.25-1.83,1.25a2.94,2.94,0,0,1-2.31-1.14L331,111.24a5.7,5.7,0,0,0,4,1.51c2.48,0,4.63-1.27,4.63-4,0-4.21-5.54-2.8-5.54-5,0-.9,1-1.24,1.79-1.24a2.55,2.55,0,0,1,1.91.8Zm-18,1.49h1.57c2.24,0,4.12,1.1,4.12,3.46,0,2.73-1.85,3.67-4.31,3.67h-1.38ZM319,112.45h4.33c3.58,0,6.76-2.09,6.76-6,0-4.4-3.24-6-7.11-6h-4Zm-13.83,0h2.65v-8.55h0l5.25,8.55h3.46v-12h-2.65v8.35h0l-5.11-8.35h-3.6Zm-5.06,0h2.65v-12h-2.65Zm-16,0h2.65v-9.22h0l3,9.22h2l3.16-9.22h0v9.22h2.65v-12h-4L291,108.27h0l-2.77-7.84h-4Zm-7.35-7.13h-4.7v2.44h2.16v2a5.19,5.19,0,0,1-2.49.59,3.87,3.87,0,0,1,0-7.74,3.69,3.69,0,0,1,2.92,1.14l1.87-2a6.81,6.81,0,0,0-4.79-1.55c-3.75,0-6.49,2.46-6.49,6.32s2.73,6.31,6.49,6.31a10.77,10.77,0,0,0,5-1.15Zm-24.71,7.13h2.65v-8.55h0l5.25,8.55h3.46v-12h-2.65v8.35h0l-5.11-8.35h-3.6Zm-5.06,0h2.65v-12H247Zm-8.32-9.78h1.73c1,0,2.05.19,2.05,1.39s-1.26,1.34-2.22,1.34h-1.56Zm-2.65,9.78h2.65v-4.8H240l2.51,4.8h3.17l-3.05-5.07a3.09,3.09,0,0,0,2.6-3.29c0-2.8-2.07-3.65-4.53-3.65h-4.65Zm-6.13-4.79H227l1.46-3.74Zm-7.69,4.79h2.92l1-2.54h4.67l1,2.54h3l-5.23-12h-2.19Zm-11.64,0h2.65v-5.19h5.14v5.19H221v-12H218.4v4.48h-5.14v-4.48h-2.65Zm-2-11.07a5.43,5.43,0,0,0-3.68-1.26c-2.36,0-4.58,1.34-4.58,3.9,0,4,5.64,2.82,5.64,5,0,.85-1,1.25-1.83,1.25a2.94,2.94,0,0,1-2.31-1.14L200,111.24a5.71,5.71,0,0,0,4,1.51c2.48,0,4.63-1.27,4.63-4,0-4.21-5.53-2.8-5.53-5,0-.9,1-1.24,1.78-1.24a2.56,2.56,0,0,1,1.92.8Z"
     id="path8"
     style="fill:#ffffff" />
  <path
     class="a"
     d="M174.21,101.19a46.54,46.54,0,0,1-65.92-6.62l-11.84,9.58a61.76,61.76,0,0,0,98.33-3Z"
     id="path10"
     style="fill:#ffffff" />
  <path
     class="a"
     d="M117.78,27.09a46.47,46.47,0,0,1,62.91,8.78h18.26A61.75,61.75,0,0,0,107.18,16a16.23,16.23,0,0,1,10.61,11.07"
     id="path12"
     style="fill:#ffffff" />
  <path
     class="a"
     d="M102.16,23.24a8.2,8.2,0,1,1-8.2,8.2,8.2,8.2,0,0,1,8.2-8.2"
     id="path14"
     style="fill:#ffffff" />
  <path
     class="a"
     d="M92.09,45.05a58.11,58.11,0,0,0,2.68,46.61l12.91-6.5a43.7,43.7,0,0,1-2-35.14Z"
     id="path16"
     style="fill:#ffffff" />
  <path
     class="a"
     d="M202.3,91.74H188.47V85.4h-.19c-1.92,3.65-6.63,7.49-13.64,7.49-14.6,0-17.29-9.6-17.29-22.09V45.05h14.41V67.91c0,5.38.1,12.3,7.49,12.3s8.65-5.86,8.65-11.91V45.05H202.3Z"
     id="path18"
     style="fill:#ffffff" />
  <polygon
     class="b"
     points="33.22 76.71 33.03 76.71 21.22 45.03 5.67 45.03 24.96 91.69 40.23 91.69 58.66 45.03 44.17 45.03 33.22 76.71"
     id="polygon20"
     style="fill:#ffffff" />
  <rect
     class="b"
     x="64.16"
     y="19.11"
     width="14.4"
     height="72.58"
     id="rect22"
     style="fill:#ffffff" />
  <path
     class="b"
     d="M131.29,52.52h-.19V45H116.7V91.69h14.4V72.21c0-9.31,1.35-15.65,12.29-15.65a22,22,0,0,1,6.15,1V44.36a19.17,19.17,0,0,0-4.8-.47c-6.33,0-10.37,3-13.44,8.64"
     id="path24"
     style="fill:#ffffff" />
  <path
     class="b"
     d="M235.92,43.88c-14.4,0-25.92,9.6-25.92,24.48s11.52,24.47,25.92,24.47,25.92-9.6,25.92-24.47-11.52-24.48-25.92-24.48m0,36.28c-7.2,0-11.52-4.8-11.52-11.8s4.32-11.81,11.52-11.81,11.52,4.8,11.52,11.81-4.32,11.8-11.52,11.8"
     id="path26"
     style="fill:#ffffff" />
  <path
     class="b"
     d="M283.09,58.67c0-2.79,2.88-3.84,5.28-3.84a10.28,10.28,0,0,1,8.35,3.93L305.55,50c-4.32-4.61-11.13-6.14-17.28-6.14-9.79,0-19.59,4.8-19.59,15.74,0,17.75,24.29,11.43,24.29,18.91,0,2.5-3.26,3.36-6.53,3.36-4.32,0-7.49-1.82-10.18-5.09l-8.74,9.7c4.61,4.7,11.81,6.33,18.34,6.33,10,0,21.5-3.45,21.5-15.36,0-17.76-24.28-11.9-24.28-18.81"
     id="path28"
     style="fill:#ffffff" />
  <rect
     class="c"
     width="502.91"
     height="129.85"
     id="rect30" />
</svg>
