<?xml version="1.0" standalone="no"?>
<!DOCTYPE svg PUBLIC "-//W3C//DTD SVG 20010904//EN"
 "http://www.w3.org/TR/2001/REC-SVG-20010904/DTD/svg10.dtd">
<svg version="1.0" xmlns="http://www.w3.org/2000/svg"
 width="307.000000pt" height="375.000000pt" viewBox="0 0 307.000000 375.000000"
 preserveAspectRatio="xMidYMid meet">

<g transform="translate(0.000000,375.000000) scale(0.100000,-0.100000)"
fill="#000000" stroke="none">
<path d="M1372 3733 c-24 -2 -45 -10 -48 -17 -3 -7 -1 -41 3 -77 l8 -64 40 -2
c22 -1 70 1 108 4 l67 6 0 72 0 72 -46 7 c-26 3 -56 5 -68 4 -12 -1 -40 -3
-64 -5z"/>
<path d="M1650 3704 c0 -17 -3 -51 -6 -75 l-6 -44 53 -12 c30 -7 77 -15 106
-19 51 -6 52 -6 58 22 4 16 11 44 17 62 5 18 8 39 5 46 -7 17 -74 36 -158 45
l-69 7 0 -32z"/>
<path d="M1065 3662 c-38 -13 -71 -25 -73 -26 -1 -2 5 -19 13 -39 8 -21 21
-52 29 -71 l14 -34 97 27 c53 15 96 31 97 34 0 4 -5 37 -12 72 l-12 65 -42 -2
c-22 -2 -72 -13 -111 -26z"/>
<path d="M1960 3601 c-24 -80 -24 -81 -7 -81 6 0 26 -7 42 -16 39 -21 136 -57
140 -52 1 1 16 30 33 64 23 46 28 64 19 73 -6 6 -15 11 -21 11 -5 0 -17 6 -25
14 -16 14 -128 56 -149 56 -6 0 -20 -31 -32 -69z"/>
<path d="M810 3547 c-81 -41 -110 -60 -110 -70 0 -6 63 -111 75 -125 4 -4 157
78 172 92 9 8 5 26 -17 74 -16 34 -35 62 -42 62 -7 0 -42 -15 -78 -33z"/>
<path d="M2256 3479 c-20 -33 -36 -64 -36 -69 0 -5 10 -14 21 -21 12 -6 47
-31 79 -55 32 -24 62 -44 68 -44 5 0 28 25 51 56 l42 56 -34 33 c-31 30 -139
105 -150 105 -3 0 -21 -27 -41 -61z"/>
<path d="M586 3391 c-11 -12 -24 -21 -30 -21 -7 0 -36 -25 -66 -55 l-54 -55
39 -41 c64 -65 70 -66 122 -22 117 99 109 88 91 114 -9 13 -31 41 -49 62 l-34
39 -19 -21z"/>
<path d="M2508 3283 l-47 -56 27 -26 c15 -14 47 -48 71 -75 49 -54 51 -54 126
9 l40 34 -23 24 c-12 13 -22 28 -22 33 0 13 -103 114 -115 114 -6 0 -31 -26
-57 -57z"/>
<path d="M333 3138 c-17 -18 -47 -59 -67 -90 l-36 -57 67 -37 66 -37 24 29
c12 16 39 53 60 82 l36 53 -49 44 c-27 24 -54 44 -60 45 -5 0 -24 -15 -41 -32z"/>
<path d="M2725 3049 c-33 -23 -61 -42 -62 -43 -2 -2 101 -173 109 -181 6 -6
128 53 128 61 0 14 -73 153 -92 177 l-23 28 -60 -42z"/>
<path d="M1470 3024 c-171 -31 -318 -157 -369 -315 -11 -33 -16 -37 -54 -42
-30 -4 -50 -15 -69 -37 l-28 -30 0 -295 0 -295 80 0 80 0 0 250 0 250 193 -1
192 0 -50 -19 c-69 -27 -119 -71 -149 -133 -36 -72 -42 -131 -22 -200 43 -149
195 -235 339 -193 169 49 251 231 174 388 -33 67 -81 110 -152 138 l-50 19
193 0 192 1 0 -250 0 -250 80 0 80 0 0 295 0 295 -27 30 c-20 22 -40 33 -70
37 -38 5 -43 9 -54 42 -40 127 -158 248 -287 292 -57 20 -174 32 -222 23z
m205 -187 c49 -25 95 -67 128 -117 34 -51 38 -50 -263 -50 -301 0 -297 -1
-263 50 45 68 108 117 183 141 49 16 162 4 215 -24z m-75 -503 c79 -47 79
-161 0 -208 -78 -45 -180 14 -180 104 0 91 102 149 180 104z"/>
<path d="M157 2848 c-39 -69 -69 -158 -54 -163 81 -30 132 -44 138 -38 8 9 69
169 69 181 0 8 -103 62 -119 62 -5 0 -20 -19 -34 -42z"/>
<path d="M2875 2769 c-27 -11 -53 -24 -58 -28 -7 -7 47 -190 61 -202 4 -3 36
1 72 10 54 13 65 19 64 36 -4 71 -52 205 -73 204 -9 0 -38 -9 -66 -20z"/>
<path d="M52 2542 c-15 -49 -32 -173 -26 -184 3 -4 38 -8 79 -8 l73 0 13 88
c8 48 14 92 14 97 0 11 -87 43 -121 44 -16 1 -24 -8 -32 -37z"/>
<path d="M2942 2458 c-52 -10 -53 -10 -48 -41 3 -18 8 -67 11 -109 l7 -78 74
0 74 0 0 68 c0 37 -3 91 -6 120 -8 59 -8 59 -112 40z"/>
<path d="M13 2235 c-5 -16 4 -205 11 -212 4 -4 148 16 153 21 2 1 0 47 -4 102
l-8 99 -73 3 c-59 2 -73 0 -79 -13z"/>
<path d="M2910 2133 c-1 -5 -7 -50 -14 -101 -12 -83 -11 -94 3 -101 25 -13
121 -34 128 -28 11 11 32 133 33 185 l0 52 -75 0 c-41 0 -75 -3 -75 -7z"/>
<path d="M92 1928 c-24 -5 -45 -15 -48 -22 -5 -14 43 -187 56 -200 6 -6 132
26 147 39 2 1 -11 45 -27 98 -34 108 -32 107 -128 85z"/>
<path d="M854 1890 c-48 -19 -54 -43 -54 -223 0 -101 4 -176 11 -189 14 -27
69 -48 124 -48 40 0 45 -2 44 -22 0 -13 -35 -297 -78 -633 l-77 -610 -387 -3
-387 -2 0 -75 0 -75 1295 0 1295 0 0 75 0 75 -185 0 c-139 0 -187 3 -190 13
-6 15 -155 1208 -155 1236 0 18 6 21 40 21 51 0 105 22 119 48 7 13 11 88 11
191 0 165 -1 171 -24 198 l-24 28 -679 2 c-373 1 -688 -2 -699 -7z m1276 -225
l0 -75 -590 0 -590 0 0 75 0 75 590 0 590 0 0 -75z m-827 -437 c-111 -111
-204 -200 -207 -198 -2 3 6 91 20 195 13 105 24 193 24 198 0 4 82 7 182 7
l183 0 -202 -202z m679 -75 c19 -153 32 -285 27 -293 -4 -8 -162 -169 -351
-358 l-344 -342 -161 0 c-89 0 -164 3 -166 8 -3 4 13 139 33 301 l38 294 334
334 333 333 111 0 110 0 36 -277z m92 -728 c14 -121 26 -230 26 -242 l0 -23
-275 0 c-151 0 -275 3 -275 7 0 14 484 493 491 485 3 -4 18 -106 33 -227z"/>
<path d="M2836 1775 c-48 -134 -48 -130 25 -165 l64 -30 17 33 c18 34 71 188
66 193 -2 1 -35 12 -75 22 l-71 20 -26 -73z"/>
<path d="M203 1624 c-31 -14 -53 -30 -53 -39 0 -17 40 -99 76 -157 l24 -38 62
40 c34 22 63 42 65 44 8 7 -98 176 -110 175 -7 0 -36 -11 -64 -25z"/>
<path d="M2718 1517 c-14 -23 -38 -63 -52 -88 l-25 -46 59 -47 c33 -25 60 -43
60 -38 0 4 10 18 23 32 13 14 42 57 64 95 l41 70 -61 32 c-34 18 -66 32 -72
32 -5 1 -22 -18 -37 -42z"/>
<path d="M372 1351 c-28 -21 -55 -40 -58 -44 -7 -7 78 -117 120 -157 l27 -24
55 55 55 55 -48 55 c-26 30 -59 64 -73 76 l-26 21 -52 -37z"/>
<path d="M2560 1300 c-6 -12 -16 -18 -23 -14 -7 4 -9 4 -5 -1 4 -4 -8 -25 -27
-47 -23 -25 -33 -43 -28 -52 13 -23 82 -96 91 -96 10 0 122 113 122 123 0 7
-69 72 -101 95 -15 11 -20 9 -29 -8z"/>
<path d="M2810 85 l0 -75 110 0 110 0 0 75 0 75 -110 0 -110 0 0 -75z"/>
</g>
</svg>
