<?xml version="1.0" ?><svg id="Layer_1" style="enable-background:new 0 0 91 91;" version="1.1" viewBox="0 0 91 91" xml:space="preserve" xmlns="http://www.w3.org/2000/svg" xmlns:xlink="http://www.w3.org/1999/xlink"><g><path d="M38.2,18.8c-5.2,0-9.4,4.2-9.4,9.4c0,5.2,9.4,15,9.4,15s9.4-9.8,9.4-15C47.6,23.1,43.4,18.8,38.2,18.8z M38.2,32.4   c-2.4,0-4.4-2-4.4-4.4c0-2.4,2-4.4,4.4-4.4c2.4,0,4.4,2,4.4,4.4C42.6,30.5,40.6,32.4,38.2,32.4z"/><path d="M56.5,33.8h-8.4c-0.9,0-1.7,0.8-1.7,1.7s0.8,1.7,1.7,1.7h5v30.6H23.3V37.2h5c0.9,0,1.7-0.8,1.7-1.7s-0.8-1.7-1.7-1.7H20   v37.3h36.5v0h12.1c3.7,0,6.7-3,6.7-6.7V43.3l-18.8,0V33.8z M61,51.3h6.6v3.4H61V51.3z M61,59.6h6.6V63H61V59.6z"/><rect height="6.2" width="3.4" x="31.3" y="58.3"/><rect height="6.2" width="3.4" x="31.3" y="45.8"/><rect height="6.2" width="3.4" x="41.7" y="58.3"/><rect height="6.2" width="3.4" x="41.7" y="45.8"/></g></svg>