<?xml version="1.0" standalone="no"?>
<!DOCTYPE svg PUBLIC "-//W3C//DTD SVG 20010904//EN"
 "http://www.w3.org/TR/2001/REC-SVG-20010904/DTD/svg10.dtd">
<svg version="1.0" xmlns="http://www.w3.org/2000/svg"
 width="56.000000pt" height="54.000000pt" viewBox="0 0 56.000000 54.000000"
 preserveAspectRatio="xMidYMid meet">

<g transform="translate(0.000000,54.000000) scale(0.100000,-0.100000)"
fill="#000000" stroke="none">
<path d="M119 501 c-19 -19 -29 -40 -29 -58 0 -30 43 -105 77 -136 20 -18 21
-17 56 31 52 70 60 96 43 137 -26 63 -97 75 -147 26z m101 -41 c8 -14 8 -26 0
-40 -19 -35 -80 -20 -80 20 0 40 61 55 80 20z"/>
<path d="M0 195 l0 -185 253 0 c212 0 256 2 275 16 21 14 22 22 22 140 l0 124
-90 0 -90 0 0 46 0 45 -52 -3 c-58 -3 -72 -21 -20 -26 l32 -3 0 -155 0 -154
-150 0 -150 0 0 155 0 155 35 0 c24 0 35 5 35 15 0 11 -12 15 -50 15 l-50 0 0
-185z m475 -5 c0 -10 -12 -16 -32 -18 -28 -3 -33 0 -33 18 0 18 5 21 33 18 20
-2 32 -8 32 -18z m5 -85 c0 -10 -11 -15 -35 -15 -24 0 -35 5 -35 15 0 10 11
15 35 15 24 0 35 -5 35 -15z"/>
<path d="M110 230 c0 -23 4 -30 20 -30 16 0 20 7 20 30 0 23 -4 30 -20 30 -16
0 -20 -7 -20 -30z"/>
<path d="M220 230 c0 -20 5 -30 15 -30 10 0 15 10 15 30 0 20 -5 30 -15 30
-10 0 -15 -10 -15 -30z"/>
<path d="M114 126 c-9 -23 0 -51 16 -51 10 0 15 10 15 29 0 32 -21 47 -31 22z"/>
<path d="M220 105 c0 -24 5 -35 15 -35 10 0 15 11 15 35 0 24 -5 35 -15 35
-10 0 -15 -11 -15 -35z"/>
</g>
</svg>
