<svg id="svg" version="1.1" xmlns="http://www.w3.org/2000/svg" xmlns:xlink="http://www.w3.org/1999/xlink" width="400" height="400" viewBox="0, 0, 400,400"><g id="svgg"><path id="path0" d="M96.100 0.263 C 95.385 0.366,94.800 0.619,94.800 0.825 C 94.800 1.031,94.260 1.200,93.600 1.200 C 92.940 1.200,92.400 1.380,92.400 1.600 C 92.400 1.820,92.170 2.000,91.888 2.000 C 91.607 2.000,91.117 2.360,90.800 2.800 C 90.483 3.240,89.990 3.600,89.704 3.600 C 89.419 3.600,88.046 4.725,86.654 6.100 C 85.262 7.475,83.735 8.865,83.262 9.188 C 82.788 9.512,82.400 10.097,82.400 10.488 C 82.400 10.880,82.220 11.200,82.000 11.200 C 81.780 11.200,81.600 11.560,81.600 12.000 C 81.600 12.440,81.420 12.800,81.200 12.800 C 80.980 12.800,80.800 13.160,80.800 13.600 C 80.800 14.040,80.620 14.400,80.400 14.400 C 80.180 14.400,80.000 14.760,80.000 15.200 C 80.000 15.640,79.820 16.000,79.600 16.000 C 79.380 16.000,79.200 16.720,79.200 17.600 C 79.200 18.480,79.020 19.200,78.800 19.200 C 78.580 19.200,78.400 20.023,78.400 21.029 C 78.400 23.918,78.190 24.000,70.829 24.000 C 67.293 24.000,64.400 24.154,64.400 24.343 C 64.400 24.532,63.322 24.799,62.005 24.936 C 59.523 25.196,58.271 25.703,57.157 26.900 C 56.799 27.285,56.252 27.600,55.941 27.600 C 55.631 27.600,55.117 27.960,54.800 28.400 C 54.483 28.840,53.988 29.200,53.701 29.200 C 53.022 29.200,49.600 32.622,49.600 33.301 C 49.600 33.588,49.240 34.083,48.800 34.400 C 48.360 34.717,48.000 35.297,48.000 35.688 C 48.000 36.080,47.820 36.400,47.600 36.400 C 47.380 36.400,47.200 36.760,47.200 37.200 C 47.200 37.640,47.020 38.000,46.800 38.000 C 46.580 38.000,46.400 38.360,46.400 38.800 C 46.400 39.240,46.220 39.600,46.000 39.600 C 45.780 39.600,45.600 39.960,45.600 40.400 C 45.600 40.840,45.420 41.200,45.200 41.200 C 44.980 41.200,44.800 42.010,44.800 43.000 C 44.800 43.990,44.620 44.800,44.400 44.800 C 44.135 44.800,44.000 68.533,44.000 115.200 C 44.000 161.867,43.865 185.600,43.600 185.600 C 43.380 185.600,43.200 186.320,43.200 187.200 C 43.200 188.080,43.020 188.800,42.800 188.800 C 42.580 188.800,42.400 189.599,42.400 190.576 C 42.400 191.553,42.242 192.451,42.048 192.570 C 41.854 192.690,41.568 194.321,41.412 196.194 C 41.256 198.067,40.964 199.600,40.764 199.600 C 40.564 199.600,40.400 200.500,40.400 201.600 C 40.400 202.700,40.220 203.600,40.000 203.600 C 39.780 203.600,39.600 204.500,39.600 205.600 C 39.600 206.700,39.420 207.600,39.200 207.600 C 38.980 207.600,38.800 208.410,38.800 209.400 C 38.800 210.390,38.620 211.200,38.400 211.200 C 38.180 211.200,38.000 211.920,38.000 212.800 C 38.000 213.680,37.820 214.400,37.600 214.400 C 37.380 214.400,37.200 215.300,37.200 216.400 C 37.200 217.500,37.020 218.400,36.800 218.400 C 36.580 218.400,36.400 219.300,36.400 220.400 C 36.400 221.500,36.220 222.400,36.000 222.400 C 35.780 222.400,35.600 223.210,35.600 224.200 C 35.600 225.190,35.420 226.000,35.200 226.000 C 34.980 226.000,34.800 226.720,34.800 227.600 C 34.800 228.480,34.620 229.200,34.400 229.200 C 34.180 229.200,34.000 230.100,34.000 231.200 C 34.000 232.300,33.820 233.200,33.600 233.200 C 33.380 233.200,33.200 234.100,33.200 235.200 C 33.200 236.300,33.020 237.200,32.800 237.200 C 32.580 237.200,32.400 237.920,32.400 238.800 C 32.400 239.680,32.220 240.400,32.000 240.400 C 31.780 240.400,31.600 241.210,31.600 242.200 C 31.600 243.190,31.420 244.000,31.200 244.000 C 30.980 244.000,30.800 244.900,30.800 246.000 C 30.800 247.100,30.620 248.000,30.400 248.000 C 30.180 248.000,30.000 248.900,30.000 250.000 C 30.000 251.100,29.820 252.000,29.600 252.000 C 29.380 252.000,29.200 252.720,29.200 253.600 C 29.200 254.480,29.020 255.200,28.800 255.200 C 28.580 255.200,28.400 255.999,28.400 256.976 C 28.400 257.953,28.220 258.864,28.000 259.000 C 27.780 259.136,27.600 260.047,27.600 261.024 C 27.600 262.001,27.420 262.800,27.200 262.800 C 26.980 262.800,26.800 263.700,26.800 264.800 C 26.800 265.900,26.620 266.800,26.400 266.800 C 26.180 266.800,26.000 267.520,26.000 268.400 C 26.000 269.280,25.841 270.000,25.648 270.000 C 25.454 270.000,25.167 271.710,25.010 273.800 C 24.854 275.890,24.562 277.600,24.363 277.600 C 24.163 277.600,24.000 278.320,24.000 279.200 C 24.000 280.080,23.820 280.800,23.600 280.800 C 23.380 280.800,23.200 281.700,23.200 282.800 C 23.200 283.900,23.020 284.800,22.800 284.800 C 22.580 284.800,22.400 285.700,22.400 286.800 C 22.400 287.900,22.220 288.800,22.000 288.800 C 21.780 288.800,21.600 289.610,21.600 290.600 C 21.600 291.590,21.420 292.400,21.200 292.400 C 20.980 292.400,20.800 293.120,20.800 294.000 C 20.800 294.880,20.620 295.600,20.400 295.600 C 20.180 295.600,20.000 296.500,20.000 297.600 C 20.000 298.700,19.820 299.600,19.600 299.600 C 19.380 299.600,19.200 300.500,19.200 301.600 C 19.200 302.700,19.020 303.600,18.800 303.600 C 18.580 303.600,18.400 304.500,18.400 305.600 C 18.400 306.700,18.220 307.600,18.000 307.600 C 17.780 307.600,17.600 308.230,17.600 309.000 C 17.600 309.770,17.420 310.400,17.200 310.400 C 16.980 310.400,16.800 311.300,16.800 312.400 C 16.800 313.500,16.620 314.400,16.400 314.400 C 16.149 314.400,16.000 317.000,16.000 321.400 C 16.000 325.800,16.149 328.400,16.400 328.400 C 16.620 328.400,16.800 328.940,16.800 329.600 C 16.800 330.260,16.980 330.800,17.200 330.800 C 17.420 330.800,17.600 331.160,17.600 331.600 C 17.600 332.040,17.780 332.400,18.000 332.400 C 18.220 332.400,18.400 332.760,18.400 333.200 C 18.400 333.640,18.580 334.000,18.800 334.000 C 19.020 334.000,19.200 334.360,19.200 334.800 C 19.200 335.240,19.380 335.600,19.600 335.600 C 19.820 335.600,20.000 335.876,20.000 336.214 C 20.000 336.942,25.405 342.400,26.126 342.400 C 26.399 342.400,26.883 342.760,27.200 343.200 C 27.517 343.640,28.097 344.000,28.488 344.000 C 28.880 344.000,29.200 344.180,29.200 344.400 C 29.200 344.620,29.560 344.800,30.000 344.800 C 30.440 344.800,30.800 344.980,30.800 345.200 C 30.800 345.420,31.340 345.600,32.000 345.600 C 32.660 345.600,33.200 345.780,33.200 346.000 C 33.200 346.220,33.920 346.400,34.800 346.400 C 35.680 346.400,36.400 346.580,36.400 346.800 C 36.400 347.020,37.120 347.200,38.000 347.200 C 38.880 347.200,39.600 347.380,39.600 347.600 C 39.600 347.820,40.333 348.000,41.229 348.000 C 43.738 348.000,44.000 348.508,44.000 353.371 C 44.000 355.924,44.159 357.600,44.400 357.600 C 44.620 357.600,44.800 358.230,44.800 359.000 C 44.800 359.770,44.980 360.400,45.200 360.400 C 45.420 360.400,45.600 360.940,45.600 361.600 C 45.600 362.260,45.780 362.800,46.000 362.800 C 46.220 362.800,46.400 363.160,46.400 363.600 C 46.400 364.040,46.580 364.400,46.800 364.400 C 47.020 364.400,47.200 364.760,47.200 365.200 C 47.200 365.640,47.380 366.000,47.600 366.000 C 47.820 366.000,48.000 366.272,48.000 366.605 C 48.000 367.779,55.407 374.727,56.971 375.021 C 57.757 375.168,58.400 375.449,58.400 375.645 C 58.400 375.840,58.670 376.000,59.000 376.000 C 59.330 376.000,59.600 376.180,59.600 376.400 C 59.600 376.620,60.140 376.800,60.800 376.800 C 61.460 376.800,62.000 376.980,62.000 377.200 C 62.000 377.420,62.900 377.600,64.000 377.600 C 65.100 377.600,66.000 377.780,66.000 378.000 C 66.000 378.265,86.600 378.400,127.000 378.400 C 167.400 378.400,188.000 378.535,188.000 378.800 C 188.000 379.020,188.799 379.200,189.776 379.200 C 190.753 379.200,191.664 379.380,191.800 379.600 C 191.936 379.820,192.667 380.000,193.424 380.000 C 194.181 380.000,194.800 380.180,194.800 380.400 C 194.800 380.620,195.700 380.800,196.800 380.800 C 197.900 380.800,198.800 380.980,198.800 381.200 C 198.800 381.420,199.700 381.600,200.800 381.600 C 201.900 381.600,202.800 381.780,202.800 382.000 C 202.800 382.220,203.700 382.400,204.800 382.400 C 205.900 382.400,206.800 382.580,206.800 382.800 C 206.800 383.020,207.430 383.200,208.200 383.200 C 208.970 383.200,209.600 383.380,209.600 383.600 C 209.600 383.820,210.500 384.000,211.600 384.000 C 212.700 384.000,213.600 384.180,213.600 384.400 C 213.600 384.620,214.500 384.800,215.600 384.800 C 216.700 384.800,217.600 384.980,217.600 385.200 C 217.600 385.420,218.500 385.600,219.600 385.600 C 220.700 385.600,221.600 385.780,221.600 386.000 C 221.600 386.220,222.320 386.400,223.200 386.400 C 224.080 386.400,224.800 386.580,224.800 386.800 C 224.800 387.020,225.610 387.200,226.600 387.200 C 227.590 387.200,228.400 387.380,228.400 387.600 C 228.400 387.820,229.300 388.000,230.400 388.000 C 231.500 388.000,232.400 388.180,232.400 388.400 C 232.400 388.620,233.300 388.800,234.400 388.800 C 235.500 388.800,236.400 388.980,236.400 389.200 C 236.400 389.420,237.120 389.600,238.000 389.600 C 238.880 389.600,239.600 389.780,239.600 390.000 C 239.600 390.220,240.399 390.400,241.376 390.400 C 242.353 390.400,243.254 390.563,243.377 390.763 C 243.500 390.962,245.311 391.254,247.401 391.410 C 249.490 391.567,251.200 391.854,251.200 392.048 C 251.200 392.241,251.920 392.400,252.800 392.400 C 253.680 392.400,254.400 392.580,254.400 392.800 C 254.400 393.020,255.300 393.200,256.400 393.200 C 257.500 393.200,258.400 393.380,258.400 393.600 C 258.400 393.820,259.210 394.000,260.200 394.000 C 261.190 394.000,262.000 394.180,262.000 394.400 C 262.000 394.620,262.900 394.800,264.000 394.800 C 265.100 394.800,266.000 394.980,266.000 395.200 C 266.000 395.420,266.720 395.600,267.600 395.600 C 268.480 395.600,269.200 395.780,269.200 396.000 C 269.200 396.220,270.100 396.400,271.200 396.400 C 272.300 396.400,273.200 396.580,273.200 396.800 C 273.200 397.020,274.010 397.200,275.000 397.200 C 275.990 397.200,276.800 397.380,276.800 397.600 C 276.800 397.820,277.700 398.000,278.800 398.000 C 279.900 398.000,280.800 398.180,280.800 398.400 C 280.800 398.620,281.505 398.800,282.367 398.800 C 283.264 398.800,284.004 399.013,284.100 399.300 C 284.342 400.025,304.057 400.025,304.300 399.300 C 304.391 399.025,304.992 398.800,305.633 398.800 C 306.275 398.800,306.800 398.620,306.800 398.400 C 306.800 398.180,307.148 398.000,307.573 398.000 C 307.998 398.000,308.460 397.640,308.600 397.200 C 308.740 396.760,309.115 396.400,309.434 396.400 C 309.754 396.400,311.154 395.275,312.546 393.900 C 313.938 392.525,315.465 391.135,315.938 390.812 C 316.412 390.488,316.800 389.903,316.800 389.512 C 316.800 389.120,316.980 388.800,317.200 388.800 C 317.420 388.800,317.600 388.440,317.600 388.000 C 317.600 387.560,317.780 387.200,318.000 387.200 C 318.220 387.200,318.400 386.840,318.400 386.400 C 318.400 385.960,318.580 385.600,318.800 385.600 C 319.020 385.600,319.200 385.240,319.200 384.800 C 319.200 384.360,319.380 384.000,319.600 384.000 C 319.820 384.000,320.000 383.280,320.000 382.400 C 320.000 381.520,320.180 380.800,320.400 380.800 C 320.620 380.800,320.800 380.260,320.800 379.600 L 320.800 378.400 327.000 378.400 C 330.867 378.400,333.200 378.249,333.200 378.000 C 333.200 377.780,334.100 377.600,335.200 377.600 C 336.300 377.600,337.200 377.420,337.200 377.200 C 337.200 376.980,337.740 376.800,338.400 376.800 C 339.060 376.800,339.600 376.620,339.600 376.400 C 339.600 376.180,339.960 376.000,340.400 376.000 C 340.840 376.000,341.200 375.834,341.200 375.632 C 341.200 375.429,341.761 375.140,342.447 374.990 C 343.848 374.682,351.200 367.639,351.200 366.605 C 351.200 366.272,351.380 366.000,351.600 366.000 C 351.820 366.000,352.000 365.640,352.000 365.200 C 352.000 364.760,352.180 364.400,352.400 364.400 C 352.620 364.400,352.800 364.040,352.800 363.600 C 352.800 363.160,352.980 362.800,353.200 362.800 C 353.420 362.800,353.600 362.260,353.600 361.600 C 353.600 360.940,353.780 360.400,354.000 360.400 C 354.220 360.400,354.400 359.770,354.400 359.000 C 354.400 358.230,354.580 357.600,354.800 357.600 C 355.065 357.600,355.200 333.467,355.200 286.000 C 355.200 238.533,355.335 214.400,355.600 214.400 C 355.820 214.400,356.000 213.680,356.000 212.800 C 356.000 211.920,356.180 211.200,356.400 211.200 C 356.620 211.200,356.800 210.401,356.800 209.424 C 356.800 208.447,356.980 207.536,357.200 207.400 C 357.420 207.264,357.600 206.353,357.600 205.376 C 357.600 204.399,357.766 203.600,357.970 203.600 C 358.173 203.600,358.467 201.980,358.622 200.000 C 358.776 198.020,359.060 196.400,359.252 196.400 C 359.443 196.400,359.600 195.500,359.600 194.400 C 359.600 193.300,359.780 192.400,360.000 192.400 C 360.220 192.400,360.400 191.590,360.400 190.600 C 360.400 189.610,360.580 188.800,360.800 188.800 C 361.020 188.800,361.200 188.080,361.200 187.200 C 361.200 186.320,361.380 185.600,361.600 185.600 C 361.820 185.600,362.000 184.700,362.000 183.600 C 362.000 182.500,362.180 181.600,362.400 181.600 C 362.620 181.600,362.800 180.700,362.800 179.600 C 362.800 178.500,362.980 177.600,363.200 177.600 C 363.420 177.600,363.600 176.790,363.600 175.800 C 363.600 174.810,363.780 174.000,364.000 174.000 C 364.220 174.000,364.400 173.280,364.400 172.400 C 364.400 171.520,364.580 170.800,364.800 170.800 C 365.020 170.800,365.200 169.900,365.200 168.800 C 365.200 167.700,365.380 166.800,365.600 166.800 C 365.820 166.800,366.000 165.900,366.000 164.800 C 366.000 163.700,366.180 162.800,366.400 162.800 C 366.620 162.800,366.800 162.080,366.800 161.200 C 366.800 160.320,366.980 159.600,367.200 159.600 C 367.420 159.600,367.600 158.790,367.600 157.800 C 367.600 156.810,367.780 156.000,368.000 156.000 C 368.220 156.000,368.400 155.100,368.400 154.000 C 368.400 152.900,368.580 152.000,368.800 152.000 C 369.020 152.000,369.200 151.100,369.200 150.000 C 369.200 148.900,369.380 148.000,369.600 148.000 C 369.820 148.000,370.000 147.280,370.000 146.400 C 370.000 145.520,370.180 144.800,370.400 144.800 C 370.620 144.800,370.800 143.990,370.800 143.000 C 370.800 142.010,370.980 141.200,371.200 141.200 C 371.420 141.200,371.600 140.300,371.600 139.200 C 371.600 138.100,371.780 137.200,372.000 137.200 C 372.220 137.200,372.400 136.300,372.400 135.200 C 372.400 134.100,372.580 133.200,372.800 133.200 C 373.020 133.200,373.200 132.480,373.200 131.600 C 373.200 130.720,373.380 130.000,373.600 130.000 C 373.820 130.000,374.000 129.100,374.000 128.000 C 374.000 126.900,374.159 126.000,374.353 126.000 C 374.547 126.000,374.833 124.470,374.989 122.600 C 375.144 120.730,375.436 119.200,375.636 119.200 C 375.836 119.200,376.000 118.300,376.000 117.200 C 376.000 116.100,376.180 115.200,376.400 115.200 C 376.620 115.200,376.800 114.300,376.800 113.200 C 376.800 112.100,376.980 111.200,377.200 111.200 C 377.420 111.200,377.600 110.390,377.600 109.400 C 377.600 108.410,377.780 107.600,378.000 107.600 C 378.220 107.600,378.400 106.880,378.400 106.000 C 378.400 105.120,378.580 104.400,378.800 104.400 C 379.020 104.400,379.200 103.500,379.200 102.400 C 379.200 101.300,379.380 100.400,379.600 100.400 C 379.820 100.400,380.000 99.500,380.000 98.400 C 380.000 97.300,380.180 96.400,380.400 96.400 C 380.620 96.400,380.800 95.500,380.800 94.400 C 380.800 93.300,380.980 92.400,381.200 92.400 C 381.420 92.400,381.600 91.770,381.600 91.000 C 381.600 90.230,381.780 89.600,382.000 89.600 C 382.220 89.600,382.400 88.700,382.400 87.600 C 382.400 86.500,382.580 85.600,382.800 85.600 C 383.051 85.600,383.200 83.000,383.200 78.600 C 383.200 74.200,383.051 71.600,382.800 71.600 C 382.580 71.600,382.400 71.060,382.400 70.400 C 382.400 69.740,382.220 69.200,382.000 69.200 C 381.780 69.200,381.600 68.840,381.600 68.400 C 381.600 67.960,381.420 67.600,381.200 67.600 C 380.980 67.600,380.800 67.240,380.800 66.800 C 380.800 66.360,380.620 66.000,380.400 66.000 C 380.180 66.000,380.000 65.640,380.000 65.200 C 380.000 64.760,379.820 64.400,379.600 64.400 C 379.380 64.400,379.200 64.129,379.200 63.797 C 379.200 63.049,373.848 57.600,373.113 57.600 C 372.818 57.600,372.317 57.240,372.000 56.800 C 371.683 56.360,371.103 56.000,370.712 56.000 C 370.320 56.000,370.000 55.820,370.000 55.600 C 370.000 55.380,369.640 55.200,369.200 55.200 C 368.760 55.200,368.400 55.020,368.400 54.800 C 368.400 54.580,367.860 54.400,367.200 54.400 C 366.540 54.400,366.000 54.220,366.000 54.000 C 366.000 53.780,365.280 53.600,364.400 53.600 C 363.520 53.600,362.800 53.420,362.800 53.200 C 362.800 52.980,362.080 52.800,361.200 52.800 C 360.320 52.800,359.600 52.620,359.600 52.400 C 359.600 52.180,358.867 52.000,357.971 52.000 C 355.608 52.000,355.200 51.387,355.200 47.829 C 355.200 46.076,355.031 44.800,354.800 44.800 C 354.580 44.800,354.400 43.990,354.400 43.000 C 354.400 42.010,354.220 41.200,354.000 41.200 C 353.780 41.200,353.600 40.840,353.600 40.400 C 353.600 39.960,353.420 39.600,353.200 39.600 C 352.980 39.600,352.800 39.240,352.800 38.800 C 352.800 38.360,352.620 38.000,352.400 38.000 C 352.180 38.000,352.000 37.640,352.000 37.200 C 352.000 36.760,351.820 36.400,351.600 36.400 C 351.380 36.400,351.200 36.080,351.200 35.688 C 351.200 35.297,350.840 34.717,350.400 34.400 C 349.960 34.083,349.600 33.588,349.600 33.301 C 349.600 32.622,346.178 29.200,345.499 29.200 C 345.212 29.200,344.717 28.840,344.400 28.400 C 344.083 27.960,343.569 27.600,343.259 27.600 C 342.948 27.600,342.401 27.285,342.043 26.900 C 340.929 25.703,339.677 25.196,337.195 24.936 C 335.878 24.799,334.800 24.532,334.800 24.343 C 334.800 24.154,309.576 24.000,278.600 24.000 C 241.400 24.000,222.400 23.865,222.400 23.600 C 222.400 23.380,221.500 23.200,220.400 23.200 C 219.300 23.200,218.400 23.020,218.400 22.800 C 218.400 22.580,217.680 22.400,216.800 22.400 C 215.920 22.400,215.200 22.220,215.200 22.000 C 215.200 21.780,214.300 21.600,213.200 21.600 C 212.100 21.600,211.200 21.420,211.200 21.200 C 211.200 20.980,210.390 20.800,209.400 20.800 C 208.410 20.800,207.600 20.620,207.600 20.400 C 207.600 20.180,206.880 20.000,206.000 20.000 C 205.120 20.000,204.400 19.820,204.400 19.600 C 204.400 19.380,203.500 19.200,202.400 19.200 C 201.300 19.200,200.400 19.020,200.400 18.800 C 200.400 18.580,199.500 18.400,198.400 18.400 C 197.300 18.400,196.400 18.220,196.400 18.000 C 196.400 17.780,195.500 17.600,194.400 17.600 C 193.300 17.600,192.400 17.420,192.400 17.200 C 192.400 16.980,191.770 16.800,191.000 16.800 C 190.230 16.800,189.600 16.620,189.600 16.400 C 189.600 16.180,188.700 16.000,187.600 16.000 C 186.500 16.000,185.600 15.820,185.600 15.600 C 185.600 15.380,184.700 15.200,183.600 15.200 C 182.500 15.200,181.600 15.020,181.600 14.800 C 181.600 14.580,180.700 14.400,179.600 14.400 C 178.500 14.400,177.600 14.220,177.600 14.000 C 177.600 13.780,176.970 13.600,176.200 13.600 C 175.430 13.600,174.800 13.420,174.800 13.200 C 174.800 12.980,173.900 12.800,172.800 12.800 C 171.700 12.800,170.800 12.620,170.800 12.400 C 170.800 12.180,169.900 12.000,168.800 12.000 C 167.700 12.000,166.800 11.820,166.800 11.600 C 166.800 11.380,165.900 11.200,164.800 11.200 C 163.700 11.200,162.800 11.020,162.800 10.800 C 162.800 10.580,162.080 10.400,161.200 10.400 C 160.320 10.400,159.600 10.220,159.600 10.000 C 159.600 9.780,158.801 9.600,157.824 9.600 C 156.847 9.600,155.946 9.437,155.823 9.237 C 155.700 9.038,153.889 8.746,151.799 8.590 C 149.710 8.433,148.000 8.146,148.000 7.952 C 148.000 7.759,147.280 7.600,146.400 7.600 C 145.520 7.600,144.800 7.420,144.800 7.200 C 144.800 6.980,143.990 6.800,143.000 6.800 C 142.010 6.800,141.200 6.620,141.200 6.400 C 141.200 6.180,140.300 6.000,139.200 6.000 C 138.100 6.000,137.200 5.820,137.200 5.600 C 137.200 5.380,136.300 5.200,135.200 5.200 C 134.100 5.200,133.200 5.020,133.200 4.800 C 133.200 4.580,132.480 4.400,131.600 4.400 C 130.720 4.400,130.000 4.220,130.000 4.000 C 130.000 3.780,129.100 3.600,128.000 3.600 C 126.900 3.600,126.000 3.420,126.000 3.200 C 126.000 2.980,125.190 2.800,124.200 2.800 C 123.210 2.800,122.400 2.620,122.400 2.400 C 122.400 2.180,121.500 2.000,120.400 2.000 C 119.300 2.000,118.400 1.820,118.400 1.600 C 118.400 1.380,117.695 1.200,116.833 1.200 C 115.972 1.200,115.198 0.994,115.114 0.742 C 114.957 0.272,98.841 -0.134,96.100 0.263 M108.600 10.391 C 109.480 10.580,111.280 10.942,112.600 11.196 C 113.920 11.449,115.651 11.824,116.446 12.028 C 117.242 12.233,118.331 12.400,118.866 12.400 C 119.402 12.400,120.011 12.562,120.220 12.759 C 120.429 12.956,121.320 13.215,122.200 13.333 C 123.080 13.451,124.610 13.724,125.600 13.939 C 129.937 14.880,131.897 15.270,133.303 15.470 C 134.129 15.588,134.905 15.845,135.026 16.042 C 135.148 16.239,136.036 16.400,137.000 16.400 C 137.964 16.400,138.864 16.580,139.000 16.800 C 139.136 17.020,140.011 17.200,140.944 17.200 C 141.877 17.200,142.811 17.362,143.020 17.559 C 143.229 17.756,144.120 18.016,145.000 18.136 C 147.771 18.514,149.374 18.843,150.200 19.202 C 150.640 19.394,151.630 19.643,152.400 19.756 C 153.916 19.978,157.135 20.579,160.000 21.174 C 160.990 21.380,164.050 22.012,166.800 22.579 C 169.550 23.146,172.160 23.779,172.600 23.985 C 173.040 24.190,173.760 24.437,174.200 24.533 C 174.640 24.629,155.695 24.728,132.100 24.754 C 98.042 24.790,89.191 24.697,89.158 24.300 C 88.400 15.368,98.419 8.201,108.600 10.391 M333.000 34.800 C 333.136 35.020,333.659 35.200,334.162 35.200 C 337.749 35.200,343.044 41.263,344.360 46.877 C 345.068 49.896,344.948 352.660,344.238 355.628 C 342.873 361.338,338.552 366.011,333.400 367.351 C 331.131 367.941,68.050 367.932,65.726 367.342 C 60.217 365.943,55.737 360.539,54.819 354.188 C 54.269 350.387,54.262 51.667,54.811 47.869 C 55.666 41.952,59.554 37.061,64.855 35.235 C 67.343 34.378,332.473 33.948,333.000 34.800 M359.400 63.120 C 367.814 64.662,372.881 70.598,372.852 78.880 C 372.844 81.076,372.669 83.081,372.464 83.336 C 372.258 83.591,371.991 84.520,371.871 85.400 C 371.750 86.280,371.457 87.900,371.220 89.000 C 370.982 90.100,370.676 91.769,370.541 92.709 C 370.405 93.649,370.138 94.515,369.947 94.633 C 369.756 94.751,369.600 95.546,369.600 96.400 C 369.600 97.254,369.420 98.064,369.200 98.200 C 368.980 98.336,368.800 99.236,368.800 100.200 C 368.800 101.164,368.620 102.064,368.400 102.200 C 368.180 102.336,368.000 103.236,368.000 104.200 C 368.000 105.164,367.820 106.064,367.600 106.200 C 367.380 106.336,367.200 107.031,367.200 107.744 C 367.200 108.457,367.038 109.211,366.841 109.420 C 366.644 109.629,366.383 110.520,366.261 111.400 C 366.140 112.280,365.852 113.945,365.620 115.100 C 365.389 116.255,365.041 118.055,364.847 119.100 C 364.652 120.145,364.095 122.800,363.609 125.000 C 362.212 131.319,360.793 138.022,360.393 140.200 C 360.190 141.300,359.640 143.910,359.169 146.000 C 358.698 148.090,358.172 150.520,358.000 151.400 C 357.828 152.280,357.468 153.990,357.200 155.200 C 356.563 158.076,356.132 160.228,355.801 162.200 C 355.653 163.080,355.423 164.070,355.290 164.400 C 355.157 164.730,354.834 165.810,354.572 166.800 C 354.195 168.221,354.085 157.409,354.048 115.460 L 354.000 62.319 355.700 62.536 C 356.635 62.655,358.300 62.918,359.400 63.120 M45.200 284.640 L 45.200 337.681 43.300 337.430 C 42.255 337.291,40.545 337.076,39.500 336.951 C 38.455 336.825,37.600 336.560,37.600 336.361 C 37.600 336.163,37.245 336.000,36.812 336.000 C 34.365 336.000,29.628 331.900,27.832 328.229 C 26.096 324.681,25.912 321.160,27.155 315.300 C 27.400 314.145,27.779 312.345,27.998 311.300 C 28.216 310.255,28.588 308.590,28.823 307.600 C 29.609 304.291,30.781 298.270,31.043 296.200 C 31.154 295.320,31.402 294.240,31.593 293.800 C 31.784 293.360,32.054 292.460,32.195 291.800 C 32.785 289.018,33.255 286.499,33.461 285.000 C 33.583 284.120,33.844 283.229,34.041 283.020 C 34.238 282.811,34.400 281.877,34.400 280.944 C 34.400 280.011,34.580 279.136,34.800 279.000 C 35.020 278.864,35.200 278.169,35.200 277.456 C 35.200 276.743,35.362 275.989,35.559 275.780 C 35.756 275.571,36.017 274.680,36.139 273.800 C 36.490 271.254,38.124 263.259,41.986 245.200 C 42.668 242.010,43.394 238.590,43.599 237.600 C 44.254 234.438,44.954 231.600,45.079 231.600 C 45.146 231.600,45.200 255.468,45.200 284.640 M114.072 242.990 C 111.322 244.506,111.037 248.975,113.576 250.783 C 115.156 251.908,283.912 252.097,285.513 250.976 C 288.363 248.980,288.156 244.535,285.145 243.033 C 283.418 242.171,115.633 242.129,114.072 242.990 M113.736 277.574 C 111.453 278.966,111.170 282.555,113.184 284.568 L 114.415 285.800 199.108 285.918 C 276.221 286.025,283.910 285.978,285.028 285.394 C 287.959 283.861,288.431 279.987,285.942 277.900 L 284.630 276.800 199.815 276.801 C 116.772 276.803,114.974 276.819,113.736 277.574 M115.555 311.085 C 110.795 311.601,110.489 318.698,115.170 319.998 C 117.175 320.555,282.068 320.543,284.074 319.986 C 287.623 319.000,288.715 315.205,286.231 312.494 L 284.862 311.000 200.931 310.964 C 154.769 310.944,116.350 310.999,115.555 311.085 M309.794 377.591 C 310.511 378.750,306.908 385.518,305.017 386.566 C 304.586 386.805,303.986 387.227,303.683 387.506 C 300.339 390.573,295.794 390.789,284.600 388.412 C 283.500 388.178,281.831 387.876,280.891 387.741 C 279.951 387.605,279.085 387.338,278.967 387.147 C 278.849 386.956,277.989 386.800,277.056 386.800 C 276.123 386.800,275.189 386.638,274.980 386.441 C 274.771 386.244,273.835 385.974,272.900 385.841 C 271.965 385.708,270.435 385.492,269.500 385.359 C 268.565 385.226,267.629 384.956,267.420 384.759 C 267.211 384.562,266.457 384.400,265.744 384.400 C 265.031 384.400,264.336 384.220,264.200 384.000 C 264.064 383.780,263.164 383.600,262.200 383.600 C 261.236 383.600,260.336 383.420,260.200 383.200 C 260.064 382.980,259.189 382.800,258.256 382.800 C 257.323 382.800,256.389 382.638,256.180 382.441 C 255.971 382.244,255.080 381.990,254.200 381.877 C 251.189 381.492,238.201 378.779,237.505 378.389 C 237.123 378.175,236.313 377.987,235.705 377.972 C 234.728 377.947,234.692 377.904,235.400 377.600 C 236.546 377.108,309.490 377.099,309.794 377.591 " stroke="none" fill="#040404" fill-rule="evenodd"></path><path id="path1" d="M101.574 10.014 C 95.732 10.968,89.022 17.769,89.241 22.515 C 89.270 23.143,89.396 22.994,89.677 22.000 C 90.272 19.890,91.693 16.800,92.068 16.800 C 92.251 16.800,92.400 16.586,92.400 16.324 C 92.400 15.093,97.549 11.549,100.694 10.615 C 102.224 10.161,106.474 10.347,109.400 10.995 C 110.940 11.336,113.010 11.783,114.000 11.989 C 114.990 12.194,117.510 12.732,119.600 13.183 C 122.790 13.873,129.296 15.266,136.600 16.824 C 138.747 17.282,139.294 17.276,139.000 16.800 C 138.864 16.580,137.964 16.400,137.000 16.400 C 136.036 16.400,135.148 16.239,135.026 16.042 C 134.905 15.845,134.129 15.588,133.303 15.470 C 131.897 15.270,129.937 14.880,125.600 13.939 C 124.610 13.724,123.080 13.451,122.200 13.333 C 121.320 13.215,120.429 12.956,120.220 12.759 C 120.011 12.562,119.402 12.400,118.866 12.400 C 118.331 12.400,117.242 12.233,116.446 12.028 C 115.651 11.824,113.920 11.449,112.600 11.196 C 111.280 10.942,109.480 10.580,108.600 10.391 C 105.990 9.830,103.518 9.697,101.574 10.014 M142.600 18.024 C 146.264 18.884,147.756 19.018,146.800 18.400 C 146.470 18.187,145.536 18.009,144.724 18.006 C 143.912 18.003,143.136 17.820,143.000 17.600 C 142.864 17.380,141.998 17.216,141.076 17.236 C 139.592 17.268,139.767 17.359,142.600 18.024 M148.200 19.200 C 149.316 19.680,150.496 19.680,150.200 19.200 C 150.064 18.980,149.378 18.813,148.676 18.828 C 147.600 18.852,147.526 18.910,148.200 19.200 M152.000 20.000 C 153.530 20.490,154.758 20.490,154.000 20.000 C 153.670 19.787,152.860 19.627,152.200 19.646 C 151.024 19.679,151.020 19.686,152.000 20.000 M154.833 20.555 C 155.175 20.872,162.048 22.085,162.267 21.866 C 162.392 21.741,161.978 21.537,161.347 21.413 C 160.716 21.289,159.432 21.010,158.494 20.794 C 156.809 20.405,154.510 20.255,154.833 20.555 M163.400 22.400 C 163.840 22.589,164.740 22.738,165.400 22.732 C 166.570 22.721,166.575 22.712,165.600 22.400 C 164.133 21.930,162.306 21.930,163.400 22.400 M167.400 23.200 C 167.840 23.389,168.740 23.559,169.400 23.578 C 170.327 23.604,170.463 23.701,170.000 24.000 C 169.027 24.629,89.892 24.531,89.256 23.900 C 88.852 23.499,88.805 23.539,89.019 24.100 C 89.271 24.761,91.666 24.797,132.143 24.746 C 155.714 24.716,174.550 24.608,174.000 24.507 C 173.450 24.406,172.820 24.177,172.600 23.999 C 172.210 23.682,167.877 22.772,167.027 22.828 C 166.792 22.844,166.960 23.011,167.400 23.200 M66.400 34.818 C 65.962 35.115,66.124 35.152,67.000 34.956 C 68.471 34.627,68.790 34.398,67.767 34.406 C 67.345 34.409,66.730 34.595,66.400 34.818 M330.833 34.544 C 331.305 34.950,333.243 35.193,333.010 34.816 C 332.868 34.587,332.283 34.400,331.710 34.400 C 331.136 34.400,330.742 34.465,330.833 34.544 M62.952 36.017 C 59.004 37.971,55.320 43.201,54.992 47.318 L 54.826 49.400 55.214 47.274 C 56.056 42.651,59.245 38.352,63.400 36.238 C 64.500 35.679,65.220 35.216,65.000 35.211 C 64.780 35.205,63.858 35.568,62.952 36.017 M334.400 35.486 C 334.730 35.609,335.495 35.960,336.100 36.265 C 336.705 36.571,337.200 36.731,337.200 36.621 C 337.200 36.307,334.898 35.196,334.320 35.232 C 333.971 35.253,333.997 35.336,334.400 35.486 M339.000 38.251 C 339.880 39.110,340.999 40.350,341.487 41.006 C 341.975 41.663,342.380 42.016,342.387 41.791 C 342.407 41.154,340.107 38.526,338.684 37.560 C 337.536 36.781,337.569 36.854,339.000 38.251 M343.828 46.462 C 344.619 50.151,344.642 351.756,343.851 355.400 C 342.696 360.725,339.173 364.963,334.521 366.622 C 333.684 366.921,333.322 367.173,333.716 367.182 C 335.910 367.236,341.510 362.543,342.969 359.428 C 344.856 355.400,344.771 362.884,344.786 201.131 C 344.800 49.813,344.768 45.647,343.575 44.262 C 343.414 44.075,343.528 45.065,343.828 46.462 M54.598 201.000 C 54.598 284.380,54.644 318.550,54.700 276.933 C 54.756 235.315,54.756 167.095,54.700 125.333 C 54.644 83.570,54.598 117.620,54.598 201.000 M354.048 115.460 C 354.084 155.915,354.203 168.154,354.548 166.731 C 354.796 165.703,355.135 164.728,355.300 164.564 C 355.465 164.401,355.600 163.823,355.600 163.280 C 355.600 162.737,355.764 161.642,355.965 160.846 C 356.166 160.051,356.526 158.455,356.765 157.300 C 357.657 152.994,358.014 151.314,358.745 148.000 C 359.157 146.130,359.696 143.610,359.942 142.400 C 360.187 141.190,360.841 138.092,361.394 135.515 C 362.372 130.959,362.607 129.260,362.203 129.664 C 362.094 129.772,361.832 130.747,361.620 131.831 C 361.225 133.842,358.886 144.955,356.743 155.000 C 356.086 158.080,355.444 161.199,355.317 161.931 C 355.156 162.855,354.982 163.099,354.749 162.731 C 354.320 162.055,354.290 62.800,354.719 62.800 C 354.894 62.800,356.739 63.169,358.819 63.620 C 370.057 66.055,374.191 72.873,371.612 84.719 C 371.147 86.853,370.325 90.618,369.784 93.086 C 368.682 98.109,368.632 98.551,369.200 98.200 C 369.420 98.064,369.600 97.254,369.600 96.400 C 369.600 95.546,369.756 94.751,369.947 94.633 C 370.138 94.515,370.405 93.649,370.541 92.709 C 370.676 91.769,370.982 90.100,371.220 89.000 C 371.457 87.900,371.750 86.280,371.871 85.400 C 371.991 84.520,372.258 83.591,372.464 83.336 C 373.491 82.062,372.912 74.983,371.548 72.143 C 368.708 66.231,364.455 63.653,355.700 62.536 L 354.000 62.319 354.048 115.460 M166.200 83.638 C 157.899 84.692,150.804 89.657,147.249 96.900 C 146.342 98.748,145.600 100.641,145.600 101.106 C 145.600 101.572,145.420 102.064,145.200 102.200 C 144.600 102.571,144.654 193.686,145.255 195.572 C 146.433 199.266,147.059 200.561,149.056 203.436 C 150.822 205.977,154.977 210.000,155.836 210.000 C 156.110 210.000,156.393 210.135,156.467 210.300 C 156.685 210.791,160.016 212.400,160.814 212.400 C 161.220 212.400,161.649 212.556,161.767 212.747 C 162.708 214.270,240.492 214.270,241.433 212.747 C 241.551 212.556,242.087 212.400,242.624 212.400 C 243.161 212.400,243.600 212.220,243.600 212.000 C 243.600 211.780,243.880 211.600,244.222 211.600 C 245.286 211.600,249.696 208.410,252.000 205.973 C 254.509 203.319,256.501 199.699,257.945 195.172 C 258.593 193.139,258.593 104.061,257.945 102.028 C 254.909 92.509,248.895 86.533,239.925 84.124 C 237.062 83.356,171.813 82.925,166.200 83.638 M237.800 93.200 C 237.936 93.420,238.361 93.600,238.744 93.600 C 239.619 93.600,241.593 94.499,241.597 94.900 C 241.599 95.065,241.860 95.200,242.178 95.200 C 243.135 95.200,246.722 99.155,247.754 101.349 C 249.610 105.291,249.600 105.027,249.600 148.831 C 249.600 193.335,249.660 191.973,247.500 196.693 C 246.050 199.862,241.216 203.288,236.694 204.352 C 234.019 204.981,169.181 204.981,166.506 204.352 C 160.187 202.865,155.677 198.595,154.045 192.554 C 153.339 189.940,153.435 107.257,154.147 104.583 C 155.598 99.131,158.687 95.853,164.800 93.276 C 166.153 92.705,237.449 92.631,237.800 93.200 M368.467 99.250 C 368.430 99.608,368.286 100.508,368.147 101.250 C 367.952 102.290,368.005 102.497,368.374 102.153 C 368.651 101.895,368.787 101.047,368.695 100.153 C 368.607 99.299,368.504 98.892,368.467 99.250 M367.271 105.200 C 366.980 106.630,366.639 108.232,366.513 108.760 C 366.355 109.421,366.426 109.631,366.742 109.436 C 366.994 109.280,367.200 108.569,367.200 107.856 C 367.200 107.143,367.392 106.368,367.627 106.133 C 367.862 105.898,367.997 105.007,367.927 104.153 C 367.808 102.695,367.768 102.759,367.271 105.200 M365.853 111.741 C 365.686 112.588,365.641 113.375,365.755 113.488 C 366.058 113.791,366.497 111.785,366.314 110.932 C 366.220 110.490,366.037 110.811,365.853 111.741 M365.041 115.527 C 364.865 116.477,364.820 117.353,364.941 117.474 C 365.271 117.805,365.688 115.817,365.514 114.741 C 365.402 114.046,365.278 114.252,365.041 115.527 M364.086 120.200 C 363.820 121.520,363.418 123.410,363.193 124.400 C 362.580 127.093,362.290 129.802,362.786 128.200 C 363.650 125.408,364.843 119.518,364.712 118.693 C 364.628 118.160,364.376 118.767,364.086 120.200 M44.465 233.700 C 44.194 234.855,43.804 236.610,43.599 237.600 C 43.394 238.590,42.689 241.920,42.032 245.000 C 38.449 261.797,38.101 263.632,38.591 263.142 C 38.749 262.985,39.310 260.392,40.614 253.800 C 40.701 253.360,40.944 252.280,41.154 251.400 C 41.363 250.520,41.734 248.810,41.978 247.600 C 42.221 246.390,42.776 243.818,43.210 241.885 C 43.645 239.951,44.000 238.005,44.000 237.561 C 44.000 237.116,44.180 236.864,44.400 237.000 C 44.885 237.300,44.966 337.200,44.481 337.200 C 43.402 337.200,36.318 335.424,34.907 334.800 C 30.694 332.937,27.113 327.503,26.866 322.600 C 26.730 319.914,26.899 318.809,28.791 310.000 C 29.239 307.910,30.227 303.230,30.986 299.600 C 31.744 295.970,32.823 290.866,33.383 288.259 C 34.505 283.026,34.577 282.452,34.041 283.020 C 33.844 283.229,33.583 284.120,33.461 285.000 C 33.255 286.499,32.785 289.018,32.195 291.800 C 32.054 292.460,31.784 293.360,31.593 293.800 C 31.402 294.240,31.154 295.320,31.043 296.200 C 30.781 298.270,29.609 304.291,28.823 307.600 C 28.588 308.590,28.216 310.255,27.998 311.300 C 27.779 312.345,27.400 314.145,27.155 315.300 C 25.912 321.160,26.096 324.681,27.832 328.229 C 29.628 331.900,34.365 336.000,36.812 336.000 C 37.245 336.000,37.600 336.163,37.600 336.361 C 37.600 336.560,38.455 336.825,39.500 336.951 C 40.545 337.076,42.255 337.291,43.300 337.430 L 45.200 337.681 45.200 284.640 C 45.200 255.468,45.146 231.600,45.079 231.600 C 45.012 231.600,44.736 232.545,44.465 233.700 M199.398 242.300 C 291.933 242.412,285.634 242.238,286.980 244.717 C 287.303 245.313,287.575 245.615,287.584 245.389 C 287.613 244.652,286.378 243.209,285.196 242.598 C 284.179 242.072,273.854 242.012,199.520 242.099 L 115.000 242.198 199.398 242.300 M112.309 244.100 C 110.697 246.590,111.901 251.600,114.112 251.600 C 114.317 251.600,113.926 251.078,113.242 250.440 C 112.559 249.801,111.973 248.856,111.940 248.340 C 111.822 246.504,112.077 245.054,112.681 244.133 C 113.017 243.620,113.202 243.200,113.092 243.200 C 112.982 243.200,112.630 243.605,112.309 244.100 M287.039 249.090 C 286.882 249.579,286.289 250.344,285.722 250.790 C 285.156 251.235,284.863 251.600,285.071 251.600 C 285.732 251.600,287.696 249.287,287.507 248.732 C 287.392 248.396,287.220 248.527,287.039 249.090 M157.100 251.900 C 180.475 251.957,218.725 251.957,242.100 251.900 C 265.475 251.843,246.350 251.796,199.600 251.796 C 152.850 251.796,133.725 251.843,157.100 251.900 M37.800 265.200 C 37.646 266.110,37.611 266.944,37.721 267.054 C 37.831 267.164,38.046 266.510,38.200 265.600 C 38.354 264.690,38.389 263.856,38.279 263.746 C 38.169 263.636,37.954 264.290,37.800 265.200 M37.088 268.133 C 36.930 268.536,36.816 269.436,36.836 270.133 L 36.872 271.400 37.258 270.060 C 37.711 268.485,37.572 266.902,37.088 268.133 M36.273 272.153 C 36.123 272.545,36.016 273.346,36.036 273.933 C 36.070 274.928,36.098 274.909,36.457 273.663 C 36.873 272.219,36.723 270.982,36.273 272.153 M35.492 275.842 C 35.331 276.002,35.200 276.723,35.200 277.443 C 35.200 278.163,35.020 278.864,34.800 279.000 C 34.580 279.136,34.418 280.002,34.441 280.924 C 34.478 282.431,34.560 282.279,35.249 279.425 C 36.002 276.311,36.073 275.261,35.492 275.842 M113.559 277.315 C 110.377 279.456,111.277 286.105,114.731 285.975 C 115.264 285.954,115.237 285.882,114.600 285.618 C 111.439 284.311,110.870 279.132,113.709 277.509 C 114.420 277.103,131.812 276.959,199.600 276.798 L 284.600 276.596 199.759 276.498 L 114.918 276.400 113.559 277.315 M285.900 277.797 C 286.615 278.380,287.214 279.160,287.232 279.529 C 287.253 279.981,287.332 280.029,287.473 279.677 C 287.711 279.082,286.604 277.720,285.404 277.130 C 284.962 276.913,285.185 277.213,285.900 277.797 M286.823 283.757 C 286.542 284.282,285.882 284.942,285.357 285.223 C 284.831 285.504,284.485 285.819,284.588 285.921 C 284.897 286.230,286.740 284.860,287.218 283.966 C 287.464 283.507,287.591 283.057,287.500 282.966 C 287.409 282.876,287.104 283.231,286.823 283.757 M157.500 286.300 C 180.655 286.357,218.545 286.357,241.700 286.300 C 264.855 286.243,245.910 286.196,199.600 286.196 C 153.290 286.196,134.345 286.243,157.500 286.300 M115.158 310.681 C 110.360 311.423,110.488 320.555,115.294 320.364 C 116.035 320.334,115.977 320.263,114.978 319.973 C 111.709 319.023,110.697 314.719,113.162 312.254 L 114.415 311.000 199.638 311.000 L 284.861 311.000 286.231 312.494 C 286.984 313.316,287.600 313.832,287.600 313.642 C 287.600 312.823,285.047 310.880,283.673 310.652 C 282.075 310.388,116.871 310.416,115.158 310.681 M286.473 318.448 C 285.964 319.077,284.974 319.757,284.273 319.959 C 283.266 320.251,283.189 320.335,283.906 320.364 C 284.771 320.398,288.020 317.865,287.599 317.485 C 287.489 317.386,286.983 317.820,286.473 318.448 M54.999 354.968 C 55.524 360.026,61.716 367.315,65.362 367.166 C 66.029 367.138,65.973 367.063,65.089 366.797 C 60.609 365.450,56.592 360.766,55.363 355.453 C 54.815 353.083,54.802 353.066,54.999 354.968 M67.338 367.694 C 67.592 367.856,127.110 367.988,199.600 367.988 C 272.090 367.988,331.608 367.856,331.862 367.694 C 332.116 367.532,272.598 367.400,199.600 367.400 C 126.602 367.400,67.084 367.532,67.338 367.694 M235.400 377.600 C 234.692 377.904,234.728 377.947,235.705 377.972 C 236.313 377.987,237.123 378.174,237.505 378.388 C 238.158 378.752,246.118 380.400,247.225 380.400 C 248.448 380.400,247.111 379.982,243.981 379.384 C 242.122 379.029,240.240 378.582,239.800 378.390 C 239.360 378.198,238.640 377.963,238.200 377.867 C 237.760 377.771,253.555 377.672,273.300 377.646 L 309.200 377.600 309.200 378.604 C 309.200 381.468,305.432 386.258,301.687 388.156 C 297.753 390.149,295.181 390.165,286.200 388.251 C 274.343 385.725,267.908 384.400,267.491 384.400 C 266.396 384.400,267.943 385.138,269.500 385.359 C 270.435 385.492,271.965 385.708,272.900 385.841 C 273.835 385.974,274.771 386.244,274.980 386.441 C 275.189 386.638,276.123 386.800,277.056 386.800 C 277.989 386.800,278.849 386.956,278.967 387.147 C 279.085 387.338,279.951 387.605,280.891 387.741 C 281.831 387.876,283.500 388.178,284.600 388.412 C 295.794 390.789,300.339 390.573,303.683 387.506 C 303.986 387.227,304.586 386.805,305.017 386.566 C 306.908 385.518,310.511 378.750,309.794 377.591 C 309.490 377.099,236.546 377.108,235.400 377.600 M248.800 380.800 C 249.350 380.976,250.250 381.120,250.800 381.120 L 251.800 381.120 250.800 380.800 C 250.250 380.624,249.350 380.480,248.800 380.480 L 247.800 380.480 248.800 380.800 M252.400 381.600 C 252.730 381.813,253.630 381.973,254.400 381.954 C 255.683 381.923,255.716 381.893,254.800 381.600 C 253.278 381.113,251.646 381.113,252.400 381.600 M256.200 382.400 C 256.336 382.620,257.112 382.782,257.924 382.760 C 259.250 382.724,259.298 382.688,258.400 382.400 C 256.955 381.937,255.914 381.937,256.200 382.400 M260.200 383.200 C 260.336 383.420,261.202 383.579,262.124 383.553 C 263.707 383.508,263.733 383.488,262.600 383.200 C 260.825 382.748,259.921 382.748,260.200 383.200 M264.200 384.000 C 264.336 384.220,265.022 384.382,265.724 384.360 C 266.943 384.322,266.955 384.306,266.000 384.000 C 264.564 383.540,263.916 383.540,264.200 384.000 " stroke="none" fill="#747474" fill-rule="evenodd"></path><path id="path2" d="M67.920 35.232 C 62.518 36.024,58.098 39.758,56.121 45.200 C 55.423 47.121,55.353 354.950,56.051 356.681 C 58.019 361.569,59.826 363.683,63.910 365.875 C 66.320 367.168,69.616 367.200,199.600 367.200 C 329.584 367.200,332.880 367.168,335.290 365.875 C 338.774 364.005,340.742 361.977,342.391 358.556 L 343.600 356.050 343.600 201.020 C 343.600 107.924,343.454 45.712,343.234 45.295 C 343.032 44.913,342.558 43.891,342.179 43.024 C 340.453 39.074,335.942 35.923,331.000 35.216 C 327.544 34.722,71.292 34.737,67.920 35.232 M239.800 83.400 C 250.119 85.857,257.341 94.003,259.170 105.246 C 259.868 109.543,259.741 188.493,259.029 192.600 C 257.163 203.362,250.510 210.895,240.338 213.762 C 237.062 214.686,166.511 214.731,162.982 213.812 C 152.872 211.179,146.285 203.885,144.008 192.800 C 143.004 187.913,143.788 101.625,144.842 100.974 C 145.039 100.852,145.197 100.448,145.194 100.076 C 145.145 94.612,155.165 85.425,163.400 83.384 C 166.551 82.603,236.515 82.618,239.800 83.400 M165.600 93.799 C 161.081 95.052,157.742 97.854,155.590 102.200 L 154.600 104.200 154.600 148.600 L 154.600 193.000 155.730 195.341 C 157.225 198.437,159.832 200.973,163.120 202.530 L 165.800 203.800 201.600 203.800 L 237.400 203.800 240.000 202.562 C 242.927 201.169,244.492 199.825,246.245 197.200 C 248.714 193.502,248.600 195.880,248.600 148.200 L 248.600 104.600 247.527 102.312 C 245.538 98.069,241.824 94.980,237.200 93.724 C 234.586 93.014,168.179 93.083,165.600 93.799 M205.963 120.226 C 219.734 125.021,219.872 143.516,206.173 148.345 C 196.725 151.675,186.828 144.506,186.806 134.315 C 186.785 124.524,196.914 117.074,205.963 120.226 M205.723 152.009 C 223.302 154.510,237.117 169.958,236.034 185.902 C 236.007 186.302,228.955 186.384,201.500 186.302 L 167.000 186.200 167.097 183.400 C 167.739 164.886,186.882 149.329,205.723 152.009 M286.138 242.800 C 289.226 245.513,289.085 249.570,285.834 251.579 L 284.506 252.400 199.615 252.400 C 104.804 252.400,113.376 252.675,111.638 249.582 C 109.820 246.348,111.737 242.444,115.413 241.892 C 116.066 241.794,154.490 241.733,200.800 241.757 L 285.000 241.800 286.138 242.800 M284.106 276.137 C 289.131 277.887,289.901 283.321,285.504 286.002 C 284.214 286.789,283.312 286.797,199.559 286.799 L 114.918 286.800 113.589 285.900 C 109.413 283.072,110.147 277.999,115.000 276.152 C 116.880 275.437,282.052 275.421,284.106 276.137 M285.186 310.719 C 289.257 312.719,289.373 318.381,285.385 320.400 C 283.835 321.185,117.772 321.546,114.936 320.771 C 109.824 319.374,109.482 312.834,114.400 310.524 C 116.238 309.660,283.420 309.852,285.186 310.719 " stroke="none" fill="#fbfbfb" fill-rule="evenodd"></path><path id="path3" d="M101.800 10.800 C 101.664 11.020,101.034 11.200,100.400 11.200 C 99.766 11.200,99.136 11.380,99.000 11.600 C 98.864 11.820,98.403 12.000,97.976 12.000 C 97.549 12.000,97.200 12.150,97.200 12.332 C 97.200 12.515,96.705 12.919,96.100 13.231 C 93.554 14.540,90.633 18.938,89.996 22.422 L 89.707 24.000 129.354 23.950 C 151.415 23.922,168.290 23.753,167.400 23.569 C 166.520 23.387,164.990 23.073,164.000 22.871 C 163.010 22.669,160.850 22.220,159.200 21.873 C 157.550 21.527,155.120 21.036,153.800 20.783 C 152.480 20.530,150.770 20.182,150.000 20.010 C 149.230 19.837,147.250 19.421,145.600 19.083 C 142.173 18.383,140.930 18.120,138.400 17.556 C 137.410 17.336,135.970 17.064,135.200 16.953 C 134.430 16.842,133.440 16.593,133.000 16.400 C 132.560 16.207,131.570 15.958,130.800 15.847 C 130.030 15.736,128.500 15.444,127.400 15.200 C 126.300 14.956,124.770 14.664,124.000 14.553 C 123.230 14.442,122.240 14.193,121.800 14.000 C 121.049 13.671,120.131 13.498,116.200 12.944 C 115.320 12.820,114.429 12.556,114.220 12.359 C 114.011 12.162,113.167 12.000,112.344 12.000 C 111.521 12.000,110.736 11.820,110.600 11.600 C 110.464 11.380,109.564 11.200,108.600 11.200 C 107.636 11.200,106.736 11.020,106.600 10.800 C 106.464 10.580,105.384 10.400,104.200 10.400 C 103.016 10.400,101.936 10.580,101.800 10.800 M68.100 35.076 C 68.485 35.176,69.115 35.176,69.500 35.076 C 69.885 34.975,69.570 34.893,68.800 34.893 C 68.030 34.893,67.715 34.975,68.100 35.076 M329.700 35.076 C 330.085 35.176,330.715 35.176,331.100 35.076 C 331.485 34.975,331.170 34.893,330.400 34.893 C 329.630 34.893,329.315 34.975,329.700 35.076 M63.100 36.427 C 62.275 36.863,61.600 37.308,61.600 37.418 C 61.600 37.596,64.759 36.119,65.167 35.751 C 65.627 35.334,64.425 35.728,63.100 36.427 M59.673 38.925 C 58.973 39.647,58.400 40.347,58.400 40.479 C 58.400 40.612,59.036 40.084,59.813 39.307 C 60.591 38.529,61.163 37.830,61.086 37.753 C 61.009 37.675,60.373 38.203,59.673 38.925 M339.400 39.200 C 340.259 40.080,341.052 40.800,341.162 40.800 C 341.272 40.800,340.659 40.080,339.800 39.200 C 338.941 38.320,338.148 37.600,338.038 37.600 C 337.928 37.600,338.541 38.320,339.400 39.200 M57.000 42.400 C 56.659 43.060,56.469 43.600,56.579 43.600 C 56.689 43.600,57.059 43.060,57.400 42.400 C 57.741 41.740,57.931 41.200,57.821 41.200 C 57.711 41.200,57.341 41.740,57.000 42.400 M343.798 201.000 C 343.798 285.700,343.844 320.290,343.900 277.867 C 343.956 235.445,343.956 166.145,343.900 123.867 C 343.844 81.590,343.798 116.300,343.798 201.000 M55.398 201.000 C 55.398 285.480,55.444 319.980,55.500 277.667 C 55.556 235.355,55.556 166.235,55.500 124.067 C 55.444 81.900,55.398 116.520,55.398 201.000 M355.003 63.531 C 354.891 63.642,354.829 85.798,354.864 112.767 C 354.899 139.735,355.002 161.170,355.093 160.400 C 355.183 159.630,355.424 158.829,355.629 158.620 C 355.833 158.411,356.000 157.592,356.000 156.800 C 356.000 156.008,356.162 155.189,356.359 154.980 C 356.556 154.771,356.826 153.835,356.959 152.900 C 357.092 151.965,357.308 150.435,357.441 149.500 C 357.574 148.565,357.844 147.629,358.041 147.420 C 358.238 147.211,358.400 146.367,358.400 145.544 C 358.400 144.721,358.580 143.936,358.800 143.800 C 359.020 143.664,359.200 142.879,359.200 142.056 C 359.200 141.233,359.363 140.389,359.561 140.180 C 359.760 139.971,360.017 138.990,360.132 138.000 C 360.248 137.010,360.535 135.345,360.771 134.300 C 361.605 130.606,362.037 128.577,362.410 126.600 C 362.617 125.500,362.970 123.790,363.194 122.800 C 363.418 121.810,363.869 119.650,364.196 118.000 C 364.523 116.350,365.156 113.290,365.602 111.200 C 366.048 109.110,366.598 106.500,366.824 105.400 C 367.413 102.530,367.844 100.509,368.400 98.000 C 369.263 94.107,369.640 92.231,369.847 90.800 C 369.958 90.030,370.207 89.040,370.400 88.600 C 370.593 88.160,370.852 87.125,370.975 86.300 C 371.099 85.475,371.301 84.125,371.425 83.300 C 371.548 82.475,371.837 81.417,372.067 80.948 C 372.511 80.040,372.341 77.108,371.710 74.794 C 370.253 69.453,365.598 65.187,360.200 64.245 C 359.540 64.130,358.146 63.876,357.103 63.682 C 356.059 63.487,355.114 63.419,355.003 63.531 M164.476 83.140 C 163.968 83.283,180.674 83.400,201.600 83.400 C 222.526 83.400,239.232 83.283,238.724 83.140 C 238.216 82.997,221.510 82.880,201.600 82.880 C 181.690 82.880,164.984 82.997,164.476 83.140 M161.200 84.000 C 160.667 84.345,160.667 84.388,161.200 84.388 C 161.530 84.388,162.070 84.213,162.400 84.000 C 162.933 83.655,162.933 83.612,162.400 83.612 C 162.070 83.612,161.530 83.787,161.200 84.000 M240.800 84.000 C 241.130 84.213,241.670 84.388,242.000 84.388 C 242.533 84.388,242.533 84.345,242.000 84.000 C 241.670 83.787,241.130 83.612,240.800 83.612 C 240.267 83.612,240.267 83.655,240.800 84.000 M245.627 86.021 C 247.291 86.898,249.623 88.512,250.809 89.608 C 251.994 90.704,253.062 91.592,253.182 91.582 C 254.492 91.471,244.337 84.362,242.942 84.412 C 242.754 84.419,243.962 85.143,245.627 86.021 M157.600 85.492 C 154.281 86.760,146.758 94.288,146.808 96.292 C 146.812 96.461,147.352 95.745,148.009 94.699 C 150.071 91.415,156.010 86.000,157.548 86.000 C 157.771 86.000,158.064 85.820,158.200 85.600 C 158.471 85.162,158.467 85.161,157.600 85.492 M254.681 94.189 C 255.492 95.393,256.223 96.310,256.306 96.227 C 256.519 96.014,253.864 92.016,253.503 92.007 C 253.340 92.003,253.870 92.985,254.681 94.189 M184.700 93.100 C 193.995 93.160,209.205 93.160,218.500 93.100 C 227.795 93.040,220.190 92.991,201.600 92.991 C 183.010 92.991,175.405 93.040,184.700 93.100 M164.975 93.575 C 161.976 94.293,155.733 99.066,156.625 99.958 C 156.754 100.088,157.046 99.861,157.273 99.455 C 158.483 97.294,162.457 94.660,166.000 93.672 C 167.624 93.219,166.791 93.140,164.975 93.575 M237.200 93.655 C 241.807 95.056,245.643 98.235,247.406 102.113 C 247.927 103.261,248.363 103.930,248.373 103.600 C 248.478 100.334,241.617 94.093,237.200 93.437 L 235.800 93.229 237.200 93.655 M256.400 96.956 C 256.400 97.365,257.984 100.542,257.991 100.149 C 258.003 99.565,256.849 96.800,256.595 96.800 C 256.488 96.800,256.400 96.870,256.400 96.956 M145.467 98.667 C 145.320 98.813,145.211 99.308,145.225 99.767 C 145.249 100.533,145.282 100.523,145.634 99.642 C 146.026 98.663,145.944 98.189,145.467 98.667 M144.667 101.067 C 144.520 101.213,144.415 101.798,144.434 102.367 C 144.468 103.381,144.475 103.379,144.821 102.220 C 145.185 101.003,145.131 100.602,144.667 101.067 M258.238 102.200 C 258.570 104.184,258.802 104.504,258.794 102.967 C 258.791 102.325,258.604 101.530,258.379 101.200 C 258.086 100.770,258.046 101.054,258.238 102.200 M143.852 104.900 C 143.518 106.147,143.592 191.638,143.928 192.485 C 144.078 192.862,144.200 173.107,144.200 148.585 C 144.200 124.063,144.176 104.000,144.147 104.000 C 144.117 104.000,143.985 104.405,143.852 104.900 M154.250 105.250 C 153.918 106.909,154.005 191.135,154.340 192.323 C 154.483 192.831,154.600 173.166,154.600 148.623 C 154.600 124.081,154.578 104.000,154.550 104.000 C 154.523 104.000,154.388 104.563,154.250 105.250 M248.600 148.854 C 248.600 173.109,248.714 192.425,248.853 191.777 C 249.188 190.216,249.195 106.865,248.860 105.676 C 248.717 105.168,248.600 124.598,248.600 148.854 M258.893 148.800 C 258.893 173.137,259.041 192.281,259.223 191.400 C 259.638 189.393,259.616 107.435,259.200 105.800 C 259.032 105.140,258.894 124.490,258.893 148.800 M196.237 120.590 C 183.108 125.988,183.898 144.489,197.434 148.595 C 206.563 151.364,216.414 144.011,216.396 134.440 C 216.376 124.068,205.670 116.713,196.237 120.590 M196.000 152.212 C 180.257 154.910,167.612 168.555,167.097 183.400 L 167.000 186.200 201.500 186.302 C 228.955 186.384,236.007 186.302,236.034 185.902 C 237.372 166.205,216.556 148.688,196.000 152.212 M247.800 194.000 C 247.650 194.473,247.617 194.950,247.727 195.060 C 247.837 195.170,248.050 194.873,248.200 194.400 C 248.350 193.927,248.383 193.450,248.273 193.340 C 248.163 193.230,247.950 193.527,247.800 194.000 M258.460 194.067 C 258.427 194.654,258.296 195.464,258.170 195.867 C 257.952 196.560,257.965 196.561,258.395 195.890 C 258.646 195.499,258.777 194.689,258.686 194.090 L 258.520 193.000 258.460 194.067 M144.446 194.800 C 144.427 195.350,144.587 196.070,144.800 196.400 C 145.294 197.164,145.294 196.342,144.800 194.800 L 144.480 193.800 144.446 194.800 M246.137 197.399 C 245.512 198.389,244.865 199.199,244.700 199.199 C 244.535 199.200,244.406 199.425,244.414 199.700 C 244.431 200.290,246.186 198.279,247.031 196.700 C 247.957 194.971,247.391 195.414,246.137 197.399 M257.113 198.581 C 256.742 199.581,256.517 200.400,256.614 200.400 C 256.893 200.400,258.031 197.494,257.903 197.109 C 257.839 196.918,257.484 197.580,257.113 198.581 M158.196 199.596 C 158.826 200.254,159.411 200.723,159.495 200.638 C 159.680 200.453,157.672 198.400,157.307 198.400 C 157.166 198.400,157.566 198.938,158.196 199.596 M146.000 199.353 C 146.000 199.782,147.190 202.000,147.421 202.000 C 147.531 202.000,147.323 201.415,146.959 200.700 C 146.217 199.240,146.000 198.936,146.000 199.353 M160.344 201.333 C 161.082 202.222,165.080 204.002,166.275 203.973 C 167.173 203.951,167.036 203.848,165.591 203.458 C 164.595 203.189,162.909 202.482,161.843 201.886 C 160.777 201.290,160.102 201.041,160.344 201.333 M241.000 202.034 C 239.900 202.665,239.229 203.186,239.508 203.191 C 240.047 203.201,243.200 201.325,243.200 200.995 C 243.200 200.753,243.376 200.670,241.000 202.034 M254.337 203.585 C 251.602 207.533,246.744 211.269,242.643 212.577 C 242.226 212.710,241.992 212.925,242.121 213.055 C 242.615 213.549,248.308 210.301,250.717 208.152 C 252.913 206.192,256.719 201.360,256.336 201.017 C 256.261 200.950,255.362 202.106,254.337 203.585 M147.604 202.523 C 147.598 202.997,149.981 205.985,151.600 207.534 C 154.652 210.454,158.736 212.706,162.982 213.812 C 166.396 214.701,237.328 214.679,240.000 213.788 C 240.990 213.457,241.260 213.315,240.600 213.471 C 238.362 214.001,166.033 214.095,163.600 213.572 C 158.281 212.427,152.352 208.467,148.668 203.600 C 148.086 202.830,147.607 202.346,147.604 202.523 M237.000 203.600 C 235.893 203.882,235.877 203.909,236.800 203.947 C 237.350 203.969,238.070 203.813,238.400 203.600 C 239.081 203.160,238.729 203.160,237.000 203.600 M184.900 204.300 C 194.085 204.360,209.115 204.360,218.300 204.300 C 227.485 204.240,219.970 204.191,201.600 204.191 C 183.230 204.191,175.715 204.240,184.900 204.300 M44.098 239.476 C 44.044 240.398,43.820 241.264,43.600 241.400 C 43.380 241.536,43.200 242.436,43.200 243.400 C 43.200 244.364,43.020 245.264,42.800 245.400 C 42.580 245.536,42.400 246.346,42.400 247.200 C 42.400 248.054,42.220 248.864,42.000 249.000 C 41.780 249.136,41.600 249.809,41.600 250.495 C 41.600 251.182,41.431 252.296,41.224 252.972 C 41.017 253.647,40.660 255.190,40.430 256.400 C 40.200 257.610,39.545 260.760,38.975 263.400 C 38.404 266.040,37.682 269.550,37.369 271.200 C 37.057 272.850,36.620 275.010,36.398 276.000 C 36.004 277.762,35.641 279.473,34.765 283.700 C 34.525 284.855,34.154 286.610,33.939 287.600 C 33.724 288.590,33.451 290.120,33.333 291.000 C 33.215 291.880,32.956 292.771,32.759 292.980 C 32.562 293.189,32.400 294.008,32.400 294.800 C 32.400 295.592,32.238 296.411,32.041 296.620 C 31.844 296.829,31.574 297.765,31.441 298.700 C 31.308 299.635,31.092 301.165,30.959 302.100 C 30.826 303.035,30.556 303.971,30.359 304.180 C 30.162 304.389,30.000 305.208,30.000 306.000 C 30.000 306.792,29.838 307.611,29.641 307.820 C 29.444 308.029,29.180 308.920,29.056 309.800 C 28.502 313.731,28.329 314.649,28.000 315.400 C 26.577 318.650,26.821 324.395,28.537 328.011 C 29.790 330.651,34.442 334.800,36.148 334.800 C 36.481 334.800,36.852 334.961,36.974 335.158 C 37.095 335.355,37.871 335.613,38.697 335.732 C 39.524 335.851,41.100 336.120,42.200 336.331 C 43.300 336.541,44.246 336.672,44.302 336.622 C 44.357 336.571,44.357 314.316,44.300 287.165 C 44.243 260.014,44.153 238.554,44.098 239.476 M157.900 241.900 C 180.835 241.957,218.365 241.957,241.300 241.900 C 264.235 241.843,245.470 241.796,199.600 241.796 C 153.730 241.796,134.965 241.843,157.900 241.900 M287.800 246.998 C 287.800 248.165,287.935 249.038,288.100 248.937 C 288.485 248.701,288.480 245.945,288.094 245.338 C 287.932 245.084,287.800 245.831,287.800 246.998 M111.067 245.467 C 110.709 245.825,110.738 248.083,111.108 248.665 C 111.271 248.921,111.403 248.247,111.402 247.166 C 111.401 246.086,111.385 245.202,111.367 245.201 C 111.348 245.201,111.213 245.320,111.067 245.467 M113.400 251.600 C 114.060 252.037,114.863 252.396,115.185 252.397 C 115.506 252.399,115.063 252.040,114.200 251.600 C 112.201 250.581,111.861 250.581,113.400 251.600 M115.600 276.000 C 115.212 276.251,144.836 276.388,199.600 276.388 C 254.364 276.388,283.988 276.251,283.600 276.000 C 283.218 275.753,252.764 275.612,199.600 275.612 C 146.436 275.612,115.982 275.753,115.600 276.000 M111.043 279.833 C 110.703 280.719,110.740 282.716,111.100 282.937 C 111.265 283.038,111.401 282.238,111.403 281.160 C 111.406 278.987,111.390 278.928,111.043 279.833 M287.800 281.402 C 287.800 282.569,287.932 283.316,288.094 283.062 C 288.480 282.455,288.485 279.699,288.100 279.463 C 287.935 279.362,287.800 280.235,287.800 281.402 M114.538 286.494 C 114.792 286.656,153.070 286.788,199.600 286.788 C 246.130 286.788,284.408 286.656,284.662 286.494 C 284.916 286.332,246.638 286.200,199.600 286.200 C 152.562 286.200,114.284 286.332,114.538 286.494 M114.938 310.306 C 114.684 310.468,152.782 310.600,199.600 310.600 C 246.418 310.600,284.516 310.468,284.262 310.306 C 284.008 310.144,245.910 310.012,199.600 310.012 C 153.290 310.012,115.192 310.144,114.938 310.306 M287.800 315.600 C 287.800 316.878,287.932 317.716,288.094 317.462 C 288.256 317.208,288.388 316.370,288.388 315.600 C 288.388 314.830,288.256 313.992,288.094 313.738 C 287.932 313.484,287.800 314.322,287.800 315.600 M111.067 313.867 C 110.701 314.232,110.729 317.109,111.100 317.338 C 111.265 317.440,111.400 316.641,111.400 315.562 C 111.400 314.483,111.385 313.600,111.367 313.600 C 111.348 313.600,111.213 313.720,111.067 313.867 M286.278 319.413 C 285.660 319.956,285.314 320.400,285.508 320.400 C 285.702 320.400,286.283 319.950,286.800 319.400 C 287.995 318.128,287.731 318.134,286.278 319.413 M157.500 321.100 C 180.655 321.157,218.545 321.157,241.700 321.100 C 264.855 321.043,245.910 320.996,199.600 320.996 C 153.290 320.996,134.345 321.043,157.500 321.100 M242.400 378.672 C 242.950 378.762,245.470 379.291,248.000 379.849 C 250.530 380.406,253.950 381.118,255.600 381.431 C 257.250 381.743,259.410 382.180,260.400 382.401 C 261.390 382.621,263.190 382.998,264.400 383.238 C 266.828 383.719,269.019 384.182,271.900 384.822 C 272.945 385.054,274.430 385.336,275.200 385.447 C 275.970 385.558,276.960 385.807,277.400 386.000 C 277.840 386.193,278.830 386.442,279.600 386.553 C 280.370 386.664,281.900 386.956,283.000 387.200 C 284.100 387.444,285.630 387.736,286.400 387.847 C 287.170 387.958,288.160 388.207,288.600 388.400 C 289.382 388.743,290.814 389.007,294.358 389.463 C 296.351 389.720,298.876 389.094,302.248 387.507 C 304.494 386.449,308.400 381.814,308.400 380.205 C 308.400 379.872,308.580 379.600,308.800 379.600 C 309.020 379.600,309.200 379.330,309.200 379.000 C 309.200 378.471,305.191 378.406,275.300 378.454 C 256.655 378.484,241.850 378.582,242.400 378.672 " stroke="none" fill="#bcbcbc" fill-rule="evenodd"></path><path id="path4" d="M100.200 10.800 C 99.486 11.107,99.515 11.147,100.476 11.172 C 101.068 11.187,101.664 11.020,101.800 10.800 C 102.095 10.322,101.311 10.322,100.200 10.800 M106.600 10.800 C 106.736 11.020,107.422 11.182,108.124 11.160 C 109.343 11.122,109.355 11.106,108.400 10.800 C 106.964 10.340,106.316 10.340,106.600 10.800 M110.600 11.600 C 110.736 11.820,111.332 11.987,111.924 11.972 C 112.885 11.947,112.914 11.907,112.200 11.600 C 111.089 11.122,110.305 11.122,110.600 11.600 M95.994 12.818 C 95.447 13.239,95.180 13.580,95.400 13.578 C 95.929 13.573,97.391 12.458,97.165 12.231 C 97.068 12.134,96.541 12.398,95.994 12.818 M114.200 12.400 C 114.336 12.620,115.022 12.782,115.724 12.760 C 116.943 12.722,116.955 12.706,116.000 12.400 C 114.564 11.940,113.916 11.940,114.200 12.400 M118.000 13.200 C 118.330 13.413,119.050 13.573,119.600 13.554 L 120.600 13.520 119.600 13.200 C 118.058 12.706,117.236 12.706,118.000 13.200 M121.800 14.000 C 121.936 14.220,122.532 14.387,123.124 14.372 C 124.085 14.347,124.114 14.307,123.400 14.000 C 122.289 13.522,121.505 13.522,121.800 14.000 M125.600 14.800 C 125.930 15.013,126.650 15.173,127.200 15.154 L 128.200 15.120 127.200 14.800 C 125.658 14.306,124.836 14.306,125.600 14.800 M129.200 15.579 C 129.530 15.804,130.325 15.991,130.967 15.994 C 132.504 16.002,132.184 15.770,130.200 15.438 C 129.054 15.246,128.770 15.286,129.200 15.579 M133.000 16.400 C 133.136 16.620,133.732 16.787,134.324 16.772 C 135.285 16.747,135.314 16.707,134.600 16.400 C 133.489 15.922,132.705 15.922,133.000 16.400 M90.801 18.799 C 90.286 19.898,89.940 20.873,90.033 20.966 C 90.126 21.059,90.662 20.159,91.225 18.967 C 91.788 17.775,92.133 16.800,91.993 16.800 C 91.852 16.800,91.315 17.699,90.801 18.799 M136.800 17.179 C 137.130 17.404,137.925 17.591,138.567 17.594 C 140.104 17.602,139.784 17.370,137.800 17.038 C 136.654 16.846,136.370 16.886,136.800 17.179 M140.400 18.000 C 140.730 18.213,141.540 18.373,142.200 18.354 C 143.376 18.321,143.380 18.314,142.400 18.000 C 140.870 17.510,139.642 17.510,140.400 18.000 M144.600 18.753 C 145.260 18.942,146.880 19.321,148.200 19.595 C 149.520 19.868,151.140 20.239,151.800 20.418 C 152.460 20.597,153.810 20.840,154.800 20.957 C 156.420 21.148,153.880 20.463,148.400 19.231 C 145.785 18.643,142.990 18.292,144.600 18.753 M158.000 21.600 C 158.550 21.776,159.360 21.920,159.800 21.920 C 160.433 21.920,160.392 21.854,159.600 21.600 C 159.050 21.424,158.240 21.280,157.800 21.280 C 157.167 21.280,157.208 21.346,158.000 21.600 M89.466 22.869 C 89.341 23.348,89.331 23.888,89.443 24.069 C 89.695 24.478,169.221 24.502,169.862 24.094 C 170.116 23.932,152.185 23.849,130.016 23.909 L 89.707 24.018 89.900 23.009 C 90.136 21.775,89.782 21.661,89.466 22.869 M161.800 22.400 C 162.240 22.589,162.960 22.744,163.400 22.744 L 164.200 22.744 163.400 22.400 C 162.960 22.211,162.240 22.056,161.800 22.056 L 161.000 22.056 161.800 22.400 M165.600 23.200 C 165.930 23.413,166.650 23.578,167.200 23.566 C 168.116 23.546,168.133 23.515,167.400 23.200 C 166.216 22.691,164.813 22.691,165.600 23.200 M133.900 34.700 C 170.035 34.756,229.165 34.756,265.300 34.700 C 301.435 34.644,271.870 34.598,199.600 34.598 C 127.330 34.598,97.765 34.644,133.900 34.700 M344.198 201.000 C 344.198 285.040,344.244 319.360,344.300 277.267 C 344.356 235.175,344.356 166.415,344.300 124.467 C 344.244 82.520,344.198 116.960,344.198 201.000 M54.998 201.200 C 54.998 284.910,55.044 319.155,55.100 277.300 C 55.156 235.445,55.156 166.955,55.100 125.100 C 55.044 83.245,54.998 117.490,54.998 201.200 M354.406 112.500 C 354.409 139.835,354.544 162.408,354.706 162.662 C 354.868 162.916,355.000 140.686,355.000 113.262 L 355.000 63.400 356.400 63.481 C 357.645 63.552,357.689 63.524,356.800 63.221 C 354.163 62.322,354.399 57.453,354.406 112.500 M358.800 63.979 C 359.130 64.204,359.925 64.391,360.567 64.394 C 362.104 64.402,361.784 64.170,359.800 63.838 C 358.654 63.646,358.370 63.686,358.800 63.979 M362.200 64.800 C 362.336 65.020,362.761 65.200,363.144 65.200 C 363.527 65.200,364.053 65.413,364.313 65.673 C 364.574 65.934,364.907 66.026,365.055 65.879 C 365.202 65.731,364.671 65.338,363.874 65.005 C 362.175 64.295,361.864 64.257,362.200 64.800 M365.600 66.373 C 365.600 66.608,365.746 66.800,365.925 66.800 C 366.103 66.800,366.600 67.115,367.030 67.500 C 368.769 69.060,369.497 69.500,368.600 68.450 C 367.506 67.169,365.600 65.850,365.600 66.373 M371.021 72.600 C 371.170 73.040,371.436 73.999,371.611 74.732 C 371.787 75.464,372.057 76.184,372.212 76.332 C 372.676 76.774,371.951 73.879,371.327 72.800 C 370.965 72.174,370.851 72.099,371.021 72.600 M371.867 81.067 C 371.720 81.213,371.616 81.888,371.636 82.567 L 371.672 83.800 372.059 82.456 C 372.445 81.113,372.369 80.564,371.867 81.067 M166.300 83.482 C 166.795 83.578,167.605 83.578,168.100 83.482 C 168.595 83.387,168.190 83.309,167.200 83.309 C 166.210 83.309,165.805 83.387,166.300 83.482 M235.100 83.482 C 235.595 83.578,236.405 83.578,236.900 83.482 C 237.395 83.387,236.990 83.309,236.000 83.309 C 235.010 83.309,234.605 83.387,235.100 83.482 M162.400 83.995 C 161.991 84.255,162.310 84.299,163.400 84.132 C 165.377 83.829,165.714 83.598,164.167 83.606 C 163.525 83.609,162.730 83.784,162.400 83.995 M238.033 83.747 C 238.125 83.828,238.920 84.014,239.800 84.162 C 240.946 84.354,241.230 84.314,240.800 84.021 C 240.260 83.653,237.632 83.393,238.033 83.747 M159.300 85.034 C 158.585 85.346,158.000 85.690,158.000 85.798 C 158.000 85.976,161.176 84.851,161.567 84.535 C 161.995 84.188,160.462 84.526,159.300 85.034 M243.144 85.209 C 244.103 85.644,245.003 85.992,245.144 85.983 C 245.649 85.950,242.587 84.433,242.000 84.426 C 241.670 84.421,242.185 84.774,243.144 85.209 M371.049 85.015 C 370.912 85.373,370.816 86.056,370.836 86.533 C 370.862 87.147,370.985 87.008,371.259 86.056 C 371.657 84.672,371.494 83.858,371.049 85.015 M156.000 86.833 L 155.000 87.648 156.300 87.014 C 157.015 86.665,157.600 86.294,157.600 86.190 C 157.600 85.792,156.963 86.048,156.000 86.833 M245.600 86.122 C 245.600 86.201,246.455 86.822,247.500 87.503 C 248.545 88.185,250.075 89.364,250.900 90.125 C 251.725 90.886,252.400 91.359,252.400 91.176 C 252.400 90.743,248.196 87.322,246.734 86.566 C 246.110 86.243,245.600 86.044,245.600 86.122 M370.267 88.667 C 370.120 88.813,370.018 89.578,370.040 90.367 L 370.080 91.800 370.446 90.240 C 370.815 88.668,370.759 88.175,370.267 88.667 M150.525 91.426 C 148.997 93.195,147.193 95.687,148.082 94.800 C 148.872 94.012,152.783 89.200,152.633 89.200 C 152.530 89.200,151.581 90.202,150.525 91.426 M369.449 92.615 C 369.312 92.973,369.216 93.656,369.236 94.133 C 369.262 94.747,369.385 94.608,369.659 93.656 C 370.057 92.272,369.894 91.458,369.449 92.615 M165.200 93.221 C 164.770 93.514,165.054 93.554,166.200 93.362 C 168.184 93.030,168.504 92.798,166.967 92.806 C 166.325 92.809,165.530 92.996,165.200 93.221 M235.233 92.943 C 235.676 93.322,238.017 93.551,237.796 93.194 C 237.662 92.977,236.993 92.800,236.310 92.800 C 235.626 92.800,235.142 92.864,235.233 92.943 M254.632 94.700 C 255.030 95.305,255.604 96.295,255.907 96.900 C 256.522 98.126,256.917 98.385,256.517 97.300 C 256.136 96.269,254.428 93.600,254.149 93.600 C 254.016 93.600,254.234 94.095,254.632 94.700 M146.879 96.661 C 146.452 97.508,145.980 98.650,145.830 99.200 C 145.680 99.750,146.096 99.124,146.754 97.809 C 147.413 96.494,147.885 95.351,147.804 95.270 C 147.722 95.189,147.306 95.815,146.879 96.661 M242.856 95.966 C 243.375 96.387,243.877 96.655,243.971 96.561 C 244.176 96.357,242.744 95.231,242.256 95.213 C 242.066 95.206,242.336 95.545,242.856 95.966 M368.656 96.484 C 368.521 96.988,368.427 97.760,368.446 98.200 C 368.465 98.640,368.645 98.298,368.846 97.440 C 369.236 95.778,369.070 94.940,368.656 96.484 M245.214 97.869 C 245.234 98.323,247.196 100.685,247.198 100.258 C 247.199 100.070,246.750 99.381,246.200 98.727 C 245.650 98.073,245.206 97.687,245.214 97.869 M156.409 99.318 C 155.518 100.720,154.400 103.119,154.400 103.629 C 154.400 103.886,155.020 102.865,155.778 101.359 C 157.164 98.605,157.449 97.682,156.409 99.318 M367.876 100.010 C 367.730 100.555,367.627 101.450,367.646 102.000 C 367.671 102.718,367.784 102.557,368.049 101.427 C 368.455 99.695,368.300 98.425,367.876 100.010 M145.246 100.667 C 145.221 100.924,145.084 101.464,144.941 101.867 C 144.740 102.436,144.794 102.497,145.179 102.142 C 145.452 101.891,145.589 101.351,145.484 100.942 C 145.379 100.534,145.272 100.410,145.246 100.667 M257.606 101.033 C 257.609 101.455,257.795 102.070,258.018 102.400 C 258.315 102.838,258.352 102.676,258.156 101.800 C 257.827 100.329,257.598 100.010,257.606 101.033 M248.631 104.799 C 249.131 106.943,249.201 113.600,249.109 149.843 C 249.049 173.233,249.122 192.063,249.272 191.686 C 249.421 191.308,249.556 172.159,249.572 149.131 C 249.599 108.107,249.491 103.949,248.355 102.642 C 248.184 102.445,248.308 103.416,248.631 104.799 M144.257 105.659 C 143.885 109.221,143.999 190.262,144.380 192.400 C 144.556 193.390,144.722 173.725,144.750 148.700 C 144.777 123.675,144.736 103.200,144.657 103.200 C 144.578 103.200,144.398 104.306,144.257 105.659 M367.049 103.815 C 366.912 104.173,366.818 104.946,366.840 105.533 C 366.873 106.391,366.952 106.295,367.246 105.040 C 367.622 103.439,367.495 102.653,367.049 103.815 M258.593 148.600 C 258.593 173.240,258.641 183.261,258.700 170.869 C 258.759 158.477,258.759 138.317,258.700 126.069 C 258.641 113.821,258.593 123.960,258.593 148.600 M153.721 148.600 C 153.685 172.140,153.779 191.709,153.928 192.086 C 154.175 192.708,154.150 140.144,153.892 115.800 C 153.833 110.300,153.757 125.060,153.721 148.600 M366.215 108.200 C 366.056 109.080,365.764 110.430,365.566 111.200 C 365.367 111.970,365.220 112.960,365.238 113.400 C 365.257 113.840,365.621 112.685,366.048 110.834 C 366.474 108.983,366.751 107.273,366.663 107.034 C 366.575 106.795,366.373 107.320,366.215 108.200 M364.652 115.471 C 364.130 118.095,363.908 119.787,364.110 119.600 C 364.400 119.332,365.241 114.708,365.037 114.504 C 364.949 114.415,364.775 114.851,364.652 115.471 M363.400 121.600 C 363.248 122.291,363.214 122.947,363.324 123.057 C 363.434 123.167,363.648 122.691,363.800 122.000 C 363.952 121.309,363.986 120.653,363.876 120.543 C 363.766 120.433,363.552 120.909,363.400 121.600 M362.600 125.200 C 362.448 125.891,362.414 126.547,362.524 126.657 C 362.634 126.767,362.848 126.291,363.000 125.600 C 363.152 124.909,363.186 124.253,363.076 124.143 C 362.966 124.033,362.752 124.509,362.600 125.200 M361.873 128.953 C 361.723 129.345,361.611 129.966,361.625 130.333 C 361.642 130.775,361.781 130.674,362.037 130.034 C 362.249 129.503,362.361 128.882,362.285 128.654 C 362.209 128.427,362.024 128.561,361.873 128.953 M361.049 132.615 C 360.912 132.973,360.816 133.656,360.836 134.133 C 360.862 134.747,360.985 134.608,361.259 133.656 C 361.657 132.272,361.494 131.458,361.049 132.615 M360.249 136.215 C 360.112 136.573,360.016 137.256,360.036 137.733 C 360.062 138.347,360.185 138.208,360.459 137.256 C 360.857 135.872,360.694 135.058,360.249 136.215 M359.467 140.267 C 359.320 140.413,359.215 140.998,359.234 141.567 C 359.268 142.581,359.275 142.579,359.621 141.420 C 359.985 140.203,359.931 139.802,359.467 140.267 M358.667 143.867 C 358.520 144.013,358.416 144.688,358.436 145.367 L 358.472 146.600 358.859 145.256 C 359.245 143.913,359.169 143.364,358.667 143.867 M357.892 147.442 C 357.731 147.602,357.611 148.198,357.625 148.767 L 357.651 149.800 358.037 148.834 C 358.453 147.794,358.367 146.967,357.892 147.442 M357.049 151.415 C 356.912 151.773,356.816 152.456,356.836 152.933 C 356.862 153.547,356.985 153.408,357.259 152.456 C 357.657 151.072,357.494 150.258,357.049 151.415 M356.267 155.067 C 356.120 155.213,356.018 155.888,356.041 156.567 L 356.082 157.800 356.410 156.403 C 356.753 154.947,356.717 154.616,356.267 155.067 M355.467 158.667 C 355.320 158.813,355.216 159.488,355.236 160.167 L 355.272 161.400 355.659 160.056 C 356.045 158.713,355.969 158.164,355.467 158.667 M154.422 193.662 C 154.354 195.700,158.826 201.224,161.625 202.556 C 162.381 202.917,162.661 202.984,162.247 202.706 C 158.327 200.075,156.580 198.091,155.122 194.616 C 154.750 193.727,154.435 193.298,154.422 193.662 M257.873 194.953 C 257.723 195.345,257.611 195.966,257.625 196.333 C 257.642 196.775,257.781 196.674,258.037 196.034 C 258.249 195.503,258.361 194.882,258.285 194.654 C 258.209 194.427,258.024 194.561,257.873 194.953 M145.044 195.800 C 145.373 197.271,145.602 197.590,145.594 196.567 C 145.591 196.145,145.405 195.530,145.182 195.200 C 144.885 194.762,144.848 194.924,145.044 195.800 M247.632 195.444 C 247.614 195.688,247.155 196.543,246.612 197.344 C 246.069 198.145,245.754 198.798,245.912 198.795 C 246.407 198.787,248.057 195.964,247.855 195.470 C 247.727 195.156,247.653 195.147,247.632 195.444 M244.000 200.424 C 243.230 201.096,242.105 201.910,241.500 202.233 C 240.895 202.556,240.400 202.911,240.400 203.021 C 240.400 203.429,242.652 202.026,244.200 200.653 C 245.080 199.872,245.710 199.226,245.600 199.218 C 245.490 199.209,244.770 199.752,244.000 200.424 M255.466 201.222 C 254.854 202.310,254.447 203.200,254.560 203.200 C 254.859 203.200,256.927 199.594,256.737 199.404 C 256.649 199.316,256.077 200.134,255.466 201.222 M147.843 202.327 C 148.259 203.057,148.948 203.957,149.374 204.327 C 149.824 204.718,149.666 204.331,148.996 203.400 C 147.393 201.174,146.950 200.761,147.843 202.327 M238.400 203.600 C 237.867 203.945,237.867 203.988,238.400 203.988 C 238.730 203.988,239.270 203.813,239.600 203.600 C 240.133 203.255,240.133 203.212,239.600 203.212 C 239.270 203.212,238.730 203.387,238.400 203.600 M252.100 205.905 C 249.848 208.362,249.348 209.148,251.040 207.570 C 252.091 206.589,254.580 203.594,254.334 203.607 C 254.260 203.610,253.255 204.644,252.100 205.905 M167.115 204.472 C 167.492 204.621,183.010 204.744,201.600 204.744 C 220.190 204.744,235.708 204.621,236.085 204.472 C 236.462 204.322,220.944 204.200,201.600 204.200 C 182.256 204.200,166.738 204.322,167.115 204.472 M151.686 207.001 C 152.723 208.079,153.633 208.880,153.707 208.781 C 153.781 208.681,152.933 207.799,151.821 206.820 L 149.800 205.040 151.686 207.001 M248.081 209.372 C 246.227 210.683,245.994 211.006,247.429 210.277 C 248.105 209.934,248.892 209.371,249.178 209.026 C 249.871 208.191,249.654 208.260,248.081 209.372 M163.800 213.600 C 164.240 213.789,164.960 213.944,165.400 213.944 L 166.200 213.944 165.400 213.600 C 164.960 213.411,164.240 213.256,163.800 213.256 L 163.000 213.256 163.800 213.600 M237.800 213.600 L 237.000 213.944 237.800 213.944 C 238.240 213.944,238.960 213.789,239.400 213.600 L 240.200 213.256 239.400 213.256 C 238.960 213.256,238.240 213.411,237.800 213.600 M44.306 286.814 L 44.412 336.752 42.906 336.581 C 41.660 336.441,41.573 336.473,42.400 336.766 C 45.036 337.700,44.800 342.575,44.800 287.224 C 44.800 259.737,44.665 237.164,44.500 237.062 C 44.335 236.960,44.248 259.348,44.306 286.814 M43.654 239.667 C 43.625 240.034,43.484 240.664,43.341 241.067 C 43.141 241.633,43.195 241.696,43.575 241.346 C 43.846 241.097,43.987 240.467,43.888 239.946 C 43.790 239.426,43.684 239.300,43.654 239.667 M42.854 243.200 C 42.819 243.530,42.677 244.250,42.540 244.800 C 42.348 245.572,42.402 245.697,42.777 245.349 C 43.044 245.101,43.185 244.381,43.091 243.749 C 42.997 243.117,42.890 242.870,42.854 243.200 M41.862 247.747 C 41.697 248.378,41.656 248.989,41.771 249.104 C 42.093 249.427,42.487 248.138,42.315 247.323 C 42.203 246.790,42.084 246.901,41.862 247.747 M41.029 251.829 C 40.881 252.415,40.851 252.984,40.961 253.094 C 41.071 253.204,41.281 252.815,41.429 252.229 C 41.576 251.642,41.606 251.073,41.496 250.963 C 41.386 250.853,41.176 251.242,41.029 251.829 M157.500 252.300 C 180.655 252.357,218.545 252.357,241.700 252.300 C 264.855 252.243,245.910 252.196,199.600 252.196 C 153.290 252.196,134.345 252.243,157.500 252.300 M40.200 255.600 C 40.048 256.291,40.014 256.947,40.124 257.057 C 40.234 257.167,40.448 256.691,40.600 256.000 C 40.752 255.309,40.786 254.653,40.676 254.543 C 40.566 254.433,40.352 254.909,40.200 255.600 M39.400 259.600 C 39.246 260.510,39.211 261.344,39.321 261.454 C 39.431 261.564,39.646 260.910,39.800 260.000 C 39.954 259.090,39.989 258.256,39.879 258.146 C 39.769 258.036,39.554 258.690,39.400 259.600 M38.578 263.378 C 38.427 264.181,38.394 264.927,38.504 265.037 C 38.614 265.147,38.827 264.581,38.978 263.778 C 39.128 262.975,39.162 262.228,39.052 262.118 C 38.942 262.008,38.728 262.575,38.578 263.378 M37.822 267.022 C 37.672 267.825,37.628 268.562,37.726 268.660 C 37.824 268.757,38.027 268.181,38.178 267.378 C 38.328 266.575,38.372 265.838,38.274 265.740 C 38.176 265.643,37.973 266.219,37.822 267.022 M36.652 272.901 C 35.577 278.090,35.491 278.615,35.753 278.367 C 35.888 278.239,36.179 277.249,36.399 276.167 C 37.491 270.797,37.643 269.910,37.495 269.762 C 37.408 269.674,37.028 271.087,36.652 272.901 M35.254 279.400 C 35.219 279.840,35.089 280.650,34.967 281.200 C 34.775 282.063,34.807 282.103,35.198 281.490 C 35.447 281.099,35.577 280.289,35.486 279.690 C 35.378 278.979,35.297 278.879,35.254 279.400 M34.254 283.954 C 34.100 284.918,34.058 285.791,34.161 285.894 C 34.430 286.163,34.915 283.345,34.707 282.722 C 34.612 282.436,34.408 282.990,34.254 283.954 M33.453 287.741 C 33.286 288.588,33.241 289.375,33.355 289.488 C 33.658 289.791,34.097 287.785,33.914 286.932 C 33.820 286.490,33.637 286.811,33.453 287.741 M32.854 290.800 C 32.819 291.130,32.677 291.850,32.540 292.400 C 32.348 293.172,32.402 293.297,32.777 292.949 C 33.044 292.701,33.185 291.981,33.091 291.349 C 32.997 290.717,32.890 290.470,32.854 290.800 M32.059 294.200 C 32.020 294.640,31.877 295.450,31.740 296.000 C 31.548 296.770,31.602 296.897,31.975 296.551 C 32.244 296.301,32.385 295.503,32.293 294.751 C 32.202 294.008,32.097 293.760,32.059 294.200 M31.254 298.200 C 31.219 298.640,31.089 299.450,30.967 300.000 C 30.775 300.863,30.807 300.903,31.198 300.290 C 31.447 299.899,31.577 299.089,31.486 298.490 C 31.378 297.779,31.297 297.679,31.254 298.200 M30.454 302.000 C 30.419 302.330,30.277 303.050,30.140 303.600 C 29.948 304.372,30.002 304.497,30.377 304.149 C 30.644 303.901,30.785 303.181,30.691 302.549 C 30.597 301.917,30.490 301.670,30.454 302.000 M29.462 306.547 C 29.297 307.178,29.256 307.789,29.371 307.904 C 29.693 308.227,30.087 306.938,29.915 306.123 C 29.803 305.590,29.684 305.701,29.462 306.547 M28.849 309.600 C 28.816 309.930,28.689 310.650,28.567 311.200 C 28.375 312.064,28.407 312.103,28.799 311.488 C 29.048 311.097,29.175 310.377,29.081 309.888 C 28.986 309.400,28.882 309.270,28.849 309.600 M28.054 313.200 C 28.019 313.530,27.877 314.250,27.740 314.800 C 27.548 315.572,27.602 315.697,27.977 315.349 C 28.244 315.101,28.385 314.381,28.291 313.749 C 28.197 313.117,28.090 312.870,28.054 313.200 M27.249 317.200 C 27.216 317.530,27.089 318.250,26.967 318.800 C 26.775 319.664,26.807 319.703,27.199 319.088 C 27.448 318.697,27.575 317.977,27.481 317.488 C 27.386 317.000,27.282 316.870,27.249 317.200 M157.300 320.700 C 180.565 320.757,218.635 320.757,241.900 320.700 C 265.165 320.643,246.130 320.596,199.600 320.596 C 153.070 320.596,134.035 320.643,157.300 320.700 M26.834 324.000 C 26.846 324.330,27.011 324.960,27.200 325.400 L 27.544 326.200 27.566 325.400 C 27.578 324.960,27.413 324.330,27.200 324.000 C 26.855 323.467,26.815 323.467,26.834 324.000 M31.596 332.456 C 33.425 334.109,34.654 334.868,36.350 335.392 C 37.002 335.594,37.214 335.547,37.026 335.243 C 36.876 334.999,36.484 334.800,36.154 334.800 C 35.393 334.800,30.800 331.699,30.800 331.185 C 30.800 330.973,30.575 330.807,30.300 330.816 C 30.025 330.825,30.608 331.563,31.596 332.456 M37.633 335.747 C 37.725 335.828,38.520 336.014,39.400 336.162 C 40.546 336.354,40.830 336.314,40.400 336.021 C 39.860 335.653,37.232 335.393,37.633 335.747 M339.578 363.100 L 338.200 364.600 339.700 363.222 C 340.525 362.463,341.200 361.788,341.200 361.722 C 341.200 361.416,340.862 361.704,339.578 363.100 M58.400 362.125 C 58.400 362.194,58.985 362.779,59.700 363.425 L 61.000 364.600 59.825 363.300 C 58.730 362.088,58.400 361.816,58.400 362.125 M133.700 367.500 C 169.945 367.556,229.255 367.556,265.500 367.500 C 301.745 367.444,272.090 367.398,199.600 367.398 C 127.110 367.398,97.455 367.444,133.700 367.500 M238.400 377.893 C 238.950 377.994,239.580 378.194,239.800 378.338 C 240.469 378.776,309.200 378.432,309.200 377.991 C 309.200 377.739,296.474 377.619,273.300 377.654 C 253.555 377.684,237.850 377.792,238.400 377.893 M243.200 379.200 C 243.750 379.376,244.650 379.520,245.200 379.520 L 246.200 379.520 245.200 379.200 C 244.650 379.024,243.750 378.880,243.200 378.880 L 242.200 378.880 243.200 379.200 M247.000 380.000 C 247.440 380.189,248.250 380.338,248.800 380.332 L 249.800 380.320 248.800 380.000 C 248.250 379.824,247.440 379.674,247.000 379.668 L 246.200 379.656 247.000 380.000 M250.800 380.800 C 251.350 380.976,252.160 381.120,252.600 381.120 C 253.233 381.120,253.192 381.054,252.400 380.800 C 251.850 380.624,251.040 380.480,250.600 380.480 C 249.967 380.480,250.008 380.546,250.800 380.800 M256.778 381.972 C 260.012 382.787,263.744 383.401,262.000 382.830 C 260.576 382.365,257.275 381.661,255.400 381.424 C 254.520 381.312,255.140 381.559,256.778 381.972 M306.800 383.141 C 306.800 383.328,306.260 384.046,305.600 384.737 C 304.231 386.170,303.973 386.910,305.243 385.762 C 306.489 384.637,307.719 382.800,307.227 382.800 C 306.992 382.800,306.800 382.953,306.800 383.141 M266.200 383.979 C 267.740 384.395,269.345 384.749,269.767 384.767 C 271.076 384.823,270.095 384.290,268.304 383.972 C 264.342 383.269,263.578 383.272,266.200 383.979 M270.833 384.947 C 270.925 385.028,271.720 385.214,272.600 385.362 C 273.746 385.554,274.030 385.514,273.600 385.221 C 273.060 384.853,270.432 384.593,270.833 384.947 M275.600 386.000 C 277.036 386.460,277.684 386.460,277.400 386.000 C 277.264 385.780,276.578 385.618,275.876 385.640 C 274.657 385.678,274.645 385.694,275.600 386.000 M279.600 386.800 C 281.142 387.294,281.964 387.294,281.200 386.800 C 280.870 386.587,280.150 386.427,279.600 386.446 L 278.600 386.480 279.600 386.800 M282.033 387.347 C 282.125 387.428,282.920 387.614,283.800 387.762 C 284.946 387.954,285.230 387.914,284.800 387.621 C 284.260 387.253,281.632 386.993,282.033 387.347 M286.800 388.400 C 288.236 388.860,288.884 388.860,288.600 388.400 C 288.464 388.180,287.778 388.018,287.076 388.040 C 285.857 388.078,285.845 388.094,286.800 388.400 M300.200 388.400 C 300.064 388.620,299.558 388.803,299.076 388.806 C 298.594 388.809,297.930 389.000,297.600 389.230 C 297.159 389.538,297.370 389.577,298.400 389.377 C 300.120 389.043,302.128 388.040,301.124 388.016 C 300.752 388.007,300.336 388.180,300.200 388.400 M290.800 389.200 C 292.342 389.694,293.164 389.694,292.400 389.200 C 292.070 388.987,291.350 388.827,290.800 388.846 L 289.800 388.880 290.800 389.200 " stroke="none" fill="#a1a1a1" fill-rule="evenodd"></path></g></svg>